<svg width="600" height="51" viewBox="0 0 600 51" fill="none" xmlns="http://www.w3.org/2000/svg">
<path d="M1.2 16V4.672H3.488V12.128L8.912 4.672H10.864V16H8.576V8.64L3.152 16H1.2ZM18.0945 16.128C16.9318 16.128 15.9398 15.8933 15.1185 15.424C14.3078 14.944 13.6892 14.272 13.2625 13.408C12.8465 12.544 12.6385 11.536 12.6385 10.384C12.6385 9.21067 12.8518 8.18667 13.2785 7.312C13.7158 6.43733 14.3398 5.76 15.1505 5.28C15.9612 4.78933 16.9372 4.544 18.0785 4.544C18.9425 4.544 19.7158 4.69333 20.3985 4.992C21.0812 5.28 21.6305 5.712 22.0465 6.288C22.4732 6.85333 22.7398 7.552 22.8465 8.384H20.6385C20.4998 7.86133 20.2172 7.45067 19.7905 7.152C19.3745 6.84267 18.8198 6.688 18.1265 6.688C17.3585 6.688 16.7452 6.864 16.2865 7.216C15.8385 7.55733 15.5132 8.00533 15.3105 8.56C15.1078 9.104 15.0065 9.68 15.0065 10.288C15.0065 10.9173 15.1132 11.5147 15.3265 12.08C15.5398 12.6453 15.8758 13.104 16.3345 13.456C16.8038 13.808 17.4172 13.984 18.1745 13.984C18.6225 13.984 19.0225 13.92 19.3745 13.792C19.7265 13.6533 20.0145 13.456 20.2385 13.2C20.4732 12.944 20.6332 12.64 20.7185 12.288H23.0065C22.9105 13.1093 22.6332 13.808 22.1745 14.384C21.7158 14.96 21.1345 15.3973 20.4305 15.696C19.7265 15.984 18.9478 16.128 18.0945 16.128ZM27.0219 16V6.8H23.5659V4.672H32.7979V6.8H29.3259V16H27.0219ZM38.785 16.128C37.6223 16.128 36.6197 15.8827 35.777 15.392C34.945 14.9013 34.305 14.224 33.857 13.36C33.4197 12.4853 33.201 11.4827 33.201 10.352C33.201 9.2 33.425 8.18667 33.873 7.312C34.3317 6.43733 34.9823 5.76 35.825 5.28C36.6677 4.78933 37.6703 4.544 38.833 4.544C39.985 4.544 40.977 4.784 41.809 5.264C42.641 5.744 43.281 6.416 43.729 7.28C44.1877 8.144 44.417 9.152 44.417 10.304C44.417 11.4347 44.1877 12.4427 43.729 13.328C43.281 14.2027 42.6357 14.8907 41.793 15.392C40.961 15.8827 39.9583 16.128 38.785 16.128ZM38.817 13.984C39.585 13.984 40.209 13.808 40.689 13.456C41.169 13.104 41.5157 12.6507 41.729 12.096C41.953 11.5413 42.065 10.96 42.065 10.352C42.065 9.904 42.001 9.46133 41.873 9.024C41.7557 8.58667 41.569 8.192 41.313 7.84C41.057 7.488 40.721 7.21067 40.305 7.008C39.889 6.79467 39.3877 6.688 38.801 6.688C38.0437 6.688 37.425 6.864 36.945 7.216C36.465 7.55733 36.1077 8.00533 35.873 8.56C35.649 9.11467 35.537 9.70667 35.537 10.336C35.537 10.9653 35.649 11.5573 35.873 12.112C36.1077 12.6667 36.465 13.12 36.945 13.472C37.4357 13.8133 38.0597 13.984 38.817 13.984ZM52.488 16V12.144C52.1467 12.1867 51.8427 12.2187 51.576 12.24C51.32 12.2613 51.0693 12.2773 50.824 12.288C50.5893 12.2987 50.328 12.304 50.04 12.304C49.144 12.304 48.3813 12.1707 47.752 11.904C47.1227 11.6373 46.6427 11.216 46.312 10.64C45.992 10.0533 45.832 9.28533 45.832 8.336V4.672H48.12V8.096C48.12 8.65067 48.2053 9.07733 48.376 9.376C48.5467 9.67467 48.8133 9.88267 49.176 10C49.5387 10.1067 49.9973 10.16 50.552 10.16C50.8293 10.16 51.1387 10.1547 51.48 10.144C51.832 10.1227 52.168 10.0853 52.488 10.032V4.672H54.776V16H52.488ZM57.1688 16V4.672H59.4568V9.36H64.3528V4.672H66.6568V16H64.3528V11.472H59.4568V16H57.1688ZM69.0594 16V4.672H71.3474V12.128L76.7714 4.672H78.7234V16H76.4354V8.64L71.0114 16H69.0594ZM81.1219 16V4.672H83.4099V9.376H85.0259L87.9699 4.672H90.5939L86.9459 10.176L90.5779 16H87.9059L85.1059 11.488H83.4099V16H81.1219ZM96.3871 16V4.672H101.347C101.87 4.672 102.344 4.72533 102.771 4.832C103.208 4.928 103.587 5.088 103.907 5.312C104.227 5.536 104.472 5.83467 104.643 6.208C104.824 6.58133 104.915 7.056 104.915 7.632C104.915 8.10133 104.808 8.53867 104.595 8.944C104.382 9.34933 104.067 9.65867 103.651 9.872C104.206 10.0533 104.643 10.3733 104.963 10.832C105.283 11.28 105.443 11.8613 105.443 12.576C105.443 13.248 105.32 13.808 105.075 14.256C104.83 14.6933 104.494 15.04 104.067 15.296C103.64 15.552 103.15 15.7333 102.595 15.84C102.051 15.9467 101.475 16 100.867 16H96.3871ZM98.6751 13.888H101.043C101.331 13.888 101.598 13.8667 101.843 13.824C102.099 13.7813 102.323 13.712 102.515 13.616C102.707 13.5093 102.856 13.3653 102.963 13.184C103.08 13.0027 103.139 12.7787 103.139 12.512C103.139 12.2667 103.091 12.064 102.995 11.904C102.91 11.7333 102.782 11.5947 102.611 11.488C102.451 11.3813 102.259 11.3067 102.035 11.264C101.822 11.2213 101.582 11.2 101.315 11.2H98.6751V13.888ZM98.6751 9.296H100.771C101.059 9.296 101.32 9.26933 101.555 9.216C101.79 9.16267 101.987 9.07733 102.147 8.96C102.307 8.84267 102.43 8.704 102.515 8.544C102.6 8.37333 102.643 8.17067 102.643 7.936C102.643 7.62667 102.574 7.392 102.435 7.232C102.296 7.06133 102.104 6.944 101.859 6.88C101.624 6.816 101.342 6.784 101.011 6.784H98.6751V9.296ZM112.191 16.128C111.029 16.128 110.026 15.8827 109.183 15.392C108.351 14.9013 107.711 14.224 107.263 13.36C106.826 12.4853 106.607 11.4827 106.607 10.352C106.607 9.2 106.831 8.18667 107.279 7.312C107.738 6.43733 108.389 5.76 109.231 5.28C110.074 4.78933 111.077 4.544 112.239 4.544C113.391 4.544 114.383 4.784 115.215 5.264C116.047 5.744 116.687 6.416 117.135 7.28C117.594 8.144 117.823 9.152 117.823 10.304C117.823 11.4347 117.594 12.4427 117.135 13.328C116.687 14.2027 116.042 14.8907 115.199 15.392C114.367 15.8827 113.365 16.128 112.191 16.128ZM112.223 13.984C112.991 13.984 113.615 13.808 114.095 13.456C114.575 13.104 114.922 12.6507 115.135 12.096C115.359 11.5413 115.471 10.96 115.471 10.352C115.471 9.904 115.407 9.46133 115.279 9.024C115.162 8.58667 114.975 8.192 114.719 7.84C114.463 7.488 114.127 7.21067 113.711 7.008C113.295 6.79467 112.794 6.688 112.207 6.688C111.45 6.688 110.831 6.864 110.351 7.216C109.871 7.55733 109.514 8.00533 109.279 8.56C109.055 9.11467 108.943 9.70667 108.943 10.336C108.943 10.9653 109.055 11.5573 109.279 12.112C109.514 12.6667 109.871 13.12 110.351 13.472C110.842 13.8133 111.466 13.984 112.223 13.984ZM118.458 18.864V13.888C118.895 13.888 119.221 13.776 119.434 13.552C119.647 13.328 119.802 13.0507 119.898 12.72C119.994 12.3787 120.069 12.0213 120.122 11.648C120.186 11.2747 120.234 10.896 120.266 10.512C120.298 10.128 120.319 9.75467 120.33 9.392C120.373 8.57067 120.405 7.77067 120.426 6.992C120.447 6.21333 120.458 5.44 120.458 4.672H128.458V13.888H129.818V18.864H127.53V16H120.746V18.864H118.458ZM121.93 13.888H126.17V6.8H122.57L122.49 10.368C122.49 10.5813 122.479 10.8373 122.458 11.136C122.447 11.424 122.421 11.728 122.378 12.048C122.335 12.368 122.277 12.688 122.202 13.008C122.138 13.328 122.047 13.6213 121.93 13.888Z" fill="#18212E"/>
<path d="M4.896 45.192C4.224 45.192 3.632 45.0853 3.12 44.872C2.61867 44.6587 2.192 44.36 1.84 43.976C1.49867 43.592 1.24267 43.1387 1.072 42.616C0.901333 42.0827 0.816 41.496 0.816 40.856C0.816 40.216 0.906667 39.6293 1.088 39.096C1.28 38.5627 1.54667 38.104 1.888 37.72C2.22933 37.3253 2.64533 37.0213 3.136 36.808C3.63733 36.584 4.192 36.472 4.8 36.472C5.17333 36.472 5.54667 36.504 5.92 36.568C6.29333 36.632 6.65067 36.7333 6.992 36.872L6.656 38.136C6.432 38.0293 6.17067 37.944 5.872 37.88C5.584 37.816 5.27467 37.784 4.944 37.784C4.112 37.784 3.472 38.0453 3.024 38.568C2.58667 39.0907 2.368 39.8533 2.368 40.856C2.368 41.304 2.416 41.7147 2.512 42.088C2.61867 42.4613 2.77867 42.7813 2.992 43.048C3.216 43.3147 3.49867 43.5227 3.84 43.672C4.18133 43.8107 4.59733 43.88 5.088 43.88C5.48267 43.88 5.84 43.8427 6.16 43.768C6.48 43.6933 6.73067 43.6133 6.912 43.528L7.12 44.776C7.03467 44.8293 6.912 44.8827 6.752 44.936C6.592 44.9787 6.41067 45.016 6.208 45.048C6.00533 45.0907 5.78667 45.1227 5.552 45.144C5.328 45.176 5.10933 45.192 4.896 45.192ZM11.7575 40.472C12.0882 40.7067 12.4455 41.0053 12.8295 41.368C13.2135 41.72 13.5868 42.104 13.9495 42.52C14.3228 42.936 14.6695 43.3627 14.9895 43.8C15.3095 44.2267 15.5815 44.6267 15.8055 45H14.0455C13.8108 44.6373 13.5335 44.2693 13.2135 43.896C12.9042 43.512 12.5788 43.144 12.2375 42.792C11.8962 42.44 11.5495 42.1147 11.1975 41.816C10.8455 41.5173 10.5148 41.2667 10.2055 41.064V45H8.7175V36.68H10.2055V40.248C10.4615 40.0027 10.7548 39.72 11.0855 39.4C11.4162 39.0693 11.7468 38.7387 12.0775 38.408C12.4188 38.0667 12.7335 37.7467 13.0215 37.448C13.3095 37.1387 13.5442 36.8827 13.7255 36.68H15.4535C15.2188 36.936 14.9415 37.2293 14.6215 37.56C14.3122 37.88 13.9868 38.2107 13.6455 38.552C13.3148 38.8933 12.9842 39.2347 12.6535 39.576C12.3228 39.9067 12.0242 40.2053 11.7575 40.472ZM18.7673 43.88C18.8313 43.8907 18.9219 43.9013 19.0393 43.912C19.1566 43.9227 19.2899 43.9333 19.4393 43.944C19.5886 43.944 19.7433 43.9493 19.9033 43.96C20.0739 43.96 20.2339 43.96 20.3833 43.96C20.6926 43.96 20.9859 43.9387 21.2633 43.896C21.5513 43.8533 21.7966 43.7787 21.9993 43.672C22.2126 43.5653 22.3779 43.4267 22.4953 43.256C22.6233 43.0747 22.6873 42.8453 22.6873 42.568C22.6873 42.3013 22.6286 42.0827 22.5113 41.912C22.4046 41.7307 22.2553 41.5867 22.0633 41.48C21.8713 41.3733 21.6419 41.2987 21.3753 41.256C21.1193 41.2133 20.8419 41.192 20.5433 41.192H18.7673V43.88ZM20.3513 40.088C20.6393 40.088 20.9006 40.072 21.1353 40.04C21.3806 39.9973 21.5886 39.928 21.7593 39.832C21.9406 39.736 22.0793 39.608 22.1753 39.448C22.2819 39.288 22.3353 39.0853 22.3353 38.84C22.3353 38.584 22.2713 38.3813 22.1433 38.232C22.0153 38.0827 21.8446 37.9707 21.6313 37.896C21.4286 37.8107 21.1939 37.7573 20.9273 37.736C20.6713 37.704 20.4099 37.688 20.1432 37.688C19.8979 37.688 19.6473 37.6933 19.3913 37.704C19.1459 37.7147 18.9379 37.7253 18.7673 37.736V40.088H20.3513ZM20.3193 45.144C19.6899 45.144 19.1086 45.112 18.5753 45.048C18.0419 44.9947 17.6206 44.9307 17.3113 44.856V36.76C17.6206 36.6853 18.0419 36.6213 18.5753 36.568C19.1086 36.504 19.6899 36.472 20.3193 36.472C20.7566 36.472 21.1833 36.5093 21.5993 36.584C22.0153 36.6587 22.3833 36.7867 22.7033 36.968C23.0233 37.1387 23.2793 37.3787 23.4713 37.688C23.6739 37.9867 23.7753 38.36 23.7753 38.808C23.7753 39.2133 23.6739 39.56 23.4713 39.848C23.2686 40.136 22.9966 40.36 22.6553 40.52C23.1139 40.68 23.4766 40.92 23.7433 41.24C24.0206 41.5493 24.1593 41.9867 24.1593 42.552C24.1593 43.0533 24.0579 43.4693 23.8553 43.8C23.6633 44.1307 23.3913 44.3973 23.0393 44.6C22.6979 44.8027 22.2926 44.9413 21.8233 45.016C21.3539 45.1013 20.8526 45.144 20.3193 45.144ZM28.8929 43.928C29.2449 43.928 29.5542 43.9227 29.8209 43.912C30.0982 43.8907 30.3275 43.8587 30.5089 43.816V41.336C30.4022 41.2827 30.2262 41.24 29.9809 41.208C29.7462 41.1653 29.4582 41.144 29.1169 41.144C28.8929 41.144 28.6529 41.16 28.3969 41.192C28.1515 41.224 27.9222 41.2933 27.7089 41.4C27.5062 41.496 27.3355 41.6347 27.1969 41.816C27.0582 41.9867 26.9889 42.216 26.9889 42.504C26.9889 43.0373 27.1595 43.4107 27.5009 43.624C27.8422 43.8267 28.3062 43.928 28.8929 43.928ZM28.7649 36.472C29.3622 36.472 29.8635 36.552 30.2689 36.712C30.6849 36.8613 31.0155 37.08 31.2609 37.368C31.5169 37.6453 31.6982 37.9813 31.8049 38.376C31.9115 38.76 31.9649 39.1867 31.9649 39.656V44.856C31.8369 44.8773 31.6555 44.9093 31.4209 44.952C31.1969 44.984 30.9409 45.016 30.6529 45.048C30.3649 45.08 30.0502 45.1067 29.7089 45.128C29.3782 45.16 29.0475 45.176 28.7169 45.176C28.2475 45.176 27.8155 45.128 27.4209 45.032C27.0262 44.936 26.6849 44.7867 26.3969 44.584C26.1089 44.3707 25.8849 44.0933 25.7249 43.752C25.5649 43.4107 25.4849 43 25.4849 42.52C25.4849 42.0613 25.5755 41.6667 25.7569 41.336C25.9489 41.0053 26.2049 40.7387 26.5249 40.536C26.8449 40.3333 27.2182 40.184 27.6449 40.088C28.0715 39.992 28.5195 39.944 28.9889 39.944C29.1382 39.944 29.2929 39.9547 29.4529 39.976C29.6129 39.9867 29.7622 40.008 29.9009 40.04C30.0502 40.0613 30.1782 40.0827 30.2849 40.104C30.3915 40.1253 30.4662 40.1413 30.5089 40.152V39.736C30.5089 39.4907 30.4822 39.2507 30.4289 39.016C30.3755 38.7707 30.2795 38.5573 30.1409 38.376C30.0022 38.184 29.8102 38.0347 29.5649 37.928C29.3302 37.8107 29.0209 37.752 28.6369 37.752C28.1462 37.752 27.7142 37.7893 27.3409 37.864C26.9782 37.928 26.7062 37.9973 26.5249 38.072L26.3489 36.84C26.5409 36.7547 26.8609 36.6747 27.3089 36.6C27.7569 36.5147 28.2422 36.472 28.7649 36.472ZM44.6923 36.68C44.4789 36.9467 44.2389 37.24 43.9723 37.56C43.7056 37.8693 43.4283 38.1947 43.1403 38.536C42.8523 38.8667 42.5589 39.1973 42.2603 39.528C41.9723 39.8587 41.6949 40.1733 41.4283 40.472C41.7483 40.7813 42.0789 41.1173 42.4203 41.48C42.7616 41.8427 43.0923 42.2213 43.4123 42.616C43.7429 43 44.0576 43.4 44.3563 43.816C44.6549 44.2213 44.9163 44.616 45.1403 45H43.4763C43.2523 44.648 42.9909 44.28 42.6923 43.896C42.4043 43.5013 42.1003 43.1227 41.7803 42.76C41.4709 42.3973 41.1563 42.0613 40.8363 41.752C40.5269 41.432 40.2389 41.1707 39.9723 40.968V45H38.5483V40.968C38.2816 41.1707 37.9883 41.432 37.6683 41.752C37.3589 42.0613 37.0443 42.3973 36.7243 42.76C36.4149 43.1227 36.1109 43.5013 35.8123 43.896C35.5243 44.28 35.2683 44.648 35.0443 45H33.3963C33.6203 44.616 33.8763 44.2213 34.1643 43.816C34.4629 43.4107 34.7723 43.016 35.0923 42.632C35.4229 42.2373 35.7589 41.8587 36.1003 41.496C36.4416 41.1333 36.7723 40.7973 37.0923 40.488C36.8256 40.1893 36.5429 39.8747 36.2443 39.544C35.9563 39.2133 35.6683 38.8827 35.3803 38.552C35.0923 38.2107 34.8149 37.8853 34.5483 37.576C34.2816 37.256 34.0363 36.9573 33.8123 36.68H35.4603C35.8443 37.16 36.2869 37.6933 36.7883 38.28C37.2896 38.8667 37.8763 39.544 38.5483 40.312V36.68H39.9723V40.312C40.6443 39.544 41.2309 38.8667 41.7323 38.28C42.2336 37.6933 42.6763 37.16 43.0603 36.68H44.6923ZM53.6314 36.68V45H52.1914V38.664C51.8714 39.0693 51.5194 39.544 51.1354 40.088C50.7514 40.632 50.3674 41.1973 49.9834 41.784C49.5994 42.36 49.2314 42.9307 48.8794 43.496C48.5274 44.0613 48.2234 44.5627 47.9674 45H46.6394V36.68H48.0794V42.664C48.3567 42.2053 48.6714 41.704 49.0234 41.16C49.3754 40.6053 49.738 40.0613 50.1114 39.528C50.4954 38.984 50.874 38.4667 51.2474 37.976C51.6314 37.4747 51.9887 37.0427 52.3194 36.68H53.6314ZM63.0023 45H61.5143V41.32H57.6743V45H56.1863V36.68H57.6743V40.072H61.5143V36.68H63.0023V45ZM68.3773 43.928C68.7293 43.928 69.0386 43.9227 69.3053 43.912C69.5826 43.8907 69.8119 43.8587 69.9933 43.816V41.336C69.8866 41.2827 69.7106 41.24 69.4653 41.208C69.2306 41.1653 68.9426 41.144 68.6013 41.144C68.3773 41.144 68.1373 41.16 67.8813 41.192C67.6359 41.224 67.4066 41.2933 67.1933 41.4C66.9906 41.496 66.8199 41.6347 66.6813 41.816C66.5426 41.9867 66.4733 42.216 66.4733 42.504C66.4733 43.0373 66.6439 43.4107 66.9853 43.624C67.3266 43.8267 67.7906 43.928 68.3773 43.928ZM68.2493 36.472C68.8466 36.472 69.3479 36.552 69.7533 36.712C70.1693 36.8613 70.4999 37.08 70.7453 37.368C71.0013 37.6453 71.1826 37.9813 71.2893 38.376C71.3959 38.76 71.4493 39.1867 71.4493 39.656V44.856C71.3213 44.8773 71.1399 44.9093 70.9053 44.952C70.6813 44.984 70.4253 45.016 70.1373 45.048C69.8493 45.08 69.5346 45.1067 69.1933 45.128C68.8626 45.16 68.5319 45.176 68.2013 45.176C67.7319 45.176 67.2999 45.128 66.9053 45.032C66.5106 44.936 66.1693 44.7867 65.8813 44.584C65.5933 44.3707 65.3693 44.0933 65.2093 43.752C65.0493 43.4107 64.9693 43 64.9693 42.52C64.9693 42.0613 65.0599 41.6667 65.2413 41.336C65.4333 41.0053 65.6893 40.7387 66.0093 40.536C66.3293 40.3333 66.7026 40.184 67.1293 40.088C67.5559 39.992 68.0039 39.944 68.4733 39.944C68.6226 39.944 68.7773 39.9547 68.9373 39.976C69.0973 39.9867 69.2466 40.008 69.3853 40.04C69.5346 40.0613 69.6626 40.0827 69.7693 40.104C69.8759 40.1253 69.9506 40.1413 69.9933 40.152V39.736C69.9933 39.4907 69.9666 39.2507 69.9133 39.016C69.8599 38.7707 69.7639 38.5573 69.6253 38.376C69.4866 38.184 69.2946 38.0347 69.0493 37.928C68.8146 37.8107 68.5053 37.752 68.1213 37.752C67.6306 37.752 67.1986 37.7893 66.8253 37.864C66.4626 37.928 66.1906 37.9973 66.0093 38.072L65.8333 36.84C66.0253 36.7547 66.3453 36.6747 66.7933 36.6C67.2413 36.5147 67.7266 36.472 68.2493 36.472ZM84.8078 45C84.5944 44.6053 84.3438 44.1627 84.0558 43.672C83.7678 43.1707 83.4638 42.6533 83.1438 42.12C82.8238 41.5867 82.4878 41.0427 82.1358 40.488C81.7838 39.9333 81.4371 39.4 81.0958 38.888C80.7544 38.3653 80.4184 37.88 80.0878 37.432C79.7678 36.9733 79.4691 36.5733 79.1918 36.232V45H77.7198V33.912H79.1118C79.5811 34.4453 80.0771 35.0747 80.5998 35.8C81.1331 36.5147 81.6558 37.256 82.1678 38.024C82.6798 38.7813 83.1598 39.528 83.6078 40.264C84.0664 41 84.4558 41.6507 84.7758 42.216V33.912H86.2638V45H84.8078ZM93.5278 36.712C93.5278 37.1707 93.4531 37.5867 93.3038 37.96C93.1651 38.3333 92.9678 38.6533 92.7118 38.92C92.4558 39.1867 92.1518 39.3947 91.7998 39.544C91.4478 39.6827 91.0638 39.752 90.6478 39.752C90.2318 39.752 89.8478 39.6827 89.4958 39.544C89.1438 39.3947 88.8398 39.1867 88.5838 38.92C88.3278 38.6533 88.1251 38.3333 87.9758 37.96C87.8371 37.5867 87.7678 37.1707 87.7678 36.712C87.7678 36.2533 87.8371 35.8373 87.9758 35.464C88.1251 35.08 88.3278 34.76 88.5838 34.504C88.8398 34.2373 89.1438 34.0347 89.4958 33.896C89.8478 33.7467 90.2318 33.672 90.6478 33.672C91.0638 33.672 91.4478 33.7467 91.7998 33.896C92.1518 34.0347 92.4558 34.2373 92.7118 34.504C92.9678 34.76 93.1651 35.08 93.3038 35.464C93.4531 35.8373 93.5278 36.2533 93.5278 36.712ZM92.3438 36.712C92.3438 36.104 92.1944 35.624 91.8958 35.272C91.6078 34.92 91.1918 34.744 90.6478 34.744C90.1038 34.744 89.6824 34.92 89.3838 35.272C89.0958 35.624 88.9518 36.104 88.9518 36.712C88.9518 37.2987 89.0958 37.7733 89.3838 38.136C89.6824 38.4987 90.1038 38.68 90.6478 38.68C91.1918 38.68 91.6078 38.4987 91.8958 38.136C92.1944 37.7733 92.3438 37.2987 92.3438 36.712ZM87.9278 41.368H93.3678V42.6H87.9278V41.368ZM98.0379 43.912C98.9872 43.912 99.6645 43.7253 100.07 43.352C100.486 42.9787 100.694 42.4773 100.694 41.848C100.694 41.4427 100.609 41.1013 100.438 40.824C100.267 40.5467 100.043 40.328 99.7659 40.168C99.4885 39.9973 99.1632 39.88 98.7899 39.816C98.4272 39.7413 98.0539 39.704 97.6699 39.704H97.2859V38.488H97.8139C98.0805 38.488 98.3525 38.4613 98.6299 38.408C98.9179 38.3547 99.1792 38.2587 99.4139 38.12C99.6485 37.9813 99.8405 37.7947 99.9899 37.56C100.139 37.3147 100.214 37.0107 100.214 36.648C100.214 36.3493 100.161 36.0933 100.054 35.88C99.9472 35.6667 99.8032 35.4907 99.6219 35.352C99.4512 35.2133 99.2485 35.1173 99.0139 35.064C98.7899 35 98.5499 34.968 98.2939 34.968C97.7819 34.968 97.3445 35.0427 96.9819 35.192C96.6299 35.3413 96.3312 35.496 96.0859 35.656L95.5099 34.52C95.6379 34.4347 95.7979 34.344 95.9899 34.248C96.1925 34.1413 96.4165 34.0453 96.6619 33.96C96.9072 33.8747 97.1685 33.8053 97.4459 33.752C97.7339 33.688 98.0325 33.656 98.3419 33.656C98.9285 33.656 99.4352 33.7307 99.8619 33.88C100.289 34.0187 100.641 34.2213 100.918 34.488C101.195 34.744 101.403 35.0533 101.542 35.416C101.681 35.768 101.75 36.152 101.75 36.568C101.75 37.144 101.585 37.64 101.254 38.056C100.923 38.4613 100.523 38.7707 100.054 38.984C100.342 39.0693 100.619 39.192 100.886 39.352C101.153 39.512 101.382 39.7147 101.574 39.96C101.777 40.2053 101.937 40.488 102.054 40.808C102.182 41.128 102.246 41.4853 102.246 41.88C102.246 42.36 102.161 42.808 101.99 43.224C101.83 43.6293 101.574 43.9813 101.222 44.28C100.881 44.5787 100.449 44.8133 99.9259 44.984C99.4032 45.1547 98.7845 45.24 98.0699 45.24C97.7925 45.24 97.5045 45.2187 97.2059 45.176C96.9179 45.1333 96.6459 45.08 96.3899 45.016C96.1339 44.952 95.9099 44.888 95.7179 44.824C95.5259 44.76 95.3872 44.7067 95.3019 44.664L95.5899 43.368C95.7712 43.4533 96.0699 43.5653 96.4859 43.704C96.9125 43.8427 97.4299 43.912 98.0379 43.912ZM104.589 47.96H103.069L108.493 32.472H109.981L104.589 47.96ZM110.602 40.552C110.602 39.4747 110.751 38.5253 111.05 37.704C111.348 36.872 111.77 36.1733 112.314 35.608C112.868 35.0427 113.535 34.616 114.314 34.328C115.103 34.0293 115.988 33.8747 116.97 33.864L117.082 35.112C116.452 35.1227 115.876 35.192 115.354 35.32C114.842 35.448 114.383 35.6507 113.978 35.928C113.572 36.2053 113.231 36.568 112.954 37.016C112.676 37.4533 112.468 37.9973 112.33 38.648C112.607 38.52 112.916 38.4133 113.258 38.328C113.61 38.2427 113.972 38.2 114.346 38.2C114.975 38.2 115.508 38.296 115.946 38.488C116.383 38.68 116.74 38.936 117.018 39.256C117.295 39.5653 117.492 39.928 117.61 40.344C117.738 40.7493 117.802 41.176 117.802 41.624C117.802 42.0293 117.732 42.4453 117.594 42.872C117.455 43.2987 117.242 43.688 116.954 44.04C116.676 44.392 116.319 44.68 115.882 44.904C115.444 45.128 114.927 45.24 114.33 45.24C113.114 45.24 112.186 44.824 111.546 43.992C110.916 43.16 110.602 42.0133 110.602 40.552ZM114.186 39.416C113.812 39.416 113.466 39.4533 113.146 39.528C112.826 39.592 112.506 39.6933 112.186 39.832C112.175 39.9493 112.164 40.072 112.154 40.2C112.154 40.3173 112.154 40.4347 112.154 40.552C112.154 41.0213 112.186 41.464 112.25 41.88C112.314 42.296 112.426 42.664 112.586 42.984C112.756 43.2933 112.98 43.544 113.258 43.736C113.535 43.9173 113.887 44.008 114.314 44.008C114.666 44.008 114.964 43.9333 115.21 43.784C115.455 43.6347 115.658 43.4427 115.818 43.208C115.978 42.9733 116.09 42.7227 116.154 42.456C116.228 42.1787 116.266 41.912 116.266 41.656C116.266 40.9307 116.09 40.376 115.738 39.992C115.396 39.608 114.879 39.416 114.186 39.416ZM121.809 38.184C123.42 38.248 124.598 38.6 125.345 39.24C126.102 39.88 126.481 40.7493 126.481 41.848C126.481 42.3387 126.396 42.792 126.225 43.208C126.065 43.624 125.814 43.9813 125.473 44.28C125.142 44.5787 124.721 44.8133 124.209 44.984C123.697 45.1547 123.089 45.24 122.385 45.24C122.108 45.24 121.825 45.2187 121.537 45.176C121.249 45.1333 120.982 45.08 120.737 45.016C120.492 44.952 120.273 44.888 120.081 44.824C119.889 44.76 119.75 44.7067 119.665 44.664L119.953 43.368C120.134 43.4533 120.428 43.5653 120.833 43.704C121.249 43.8427 121.756 43.912 122.353 43.912C122.833 43.912 123.233 43.8587 123.553 43.752C123.884 43.6453 124.15 43.5013 124.353 43.32C124.556 43.1387 124.7 42.9307 124.785 42.696C124.881 42.4507 124.929 42.1947 124.929 41.928C124.929 41.5227 124.86 41.1653 124.721 40.856C124.582 40.536 124.337 40.2693 123.985 40.056C123.633 39.8427 123.164 39.6827 122.577 39.576C121.99 39.4587 121.249 39.4 120.353 39.4C120.417 38.8773 120.465 38.3867 120.497 37.928C120.54 37.4693 120.577 37.0213 120.609 36.584C120.641 36.1467 120.668 35.7147 120.689 35.288C120.71 34.8507 120.732 34.392 120.753 33.912H126.097V35.176H122.049C122.038 35.336 122.022 35.5547 122.001 35.832C121.98 36.0987 121.958 36.3813 121.937 36.68C121.916 36.968 121.894 37.2507 121.873 37.528C121.852 37.8053 121.83 38.024 121.809 38.184ZM130.504 43.176C130.515 43.2613 130.52 43.3467 130.52 43.432C130.52 43.5067 130.52 43.5867 130.52 43.672C130.52 44.344 130.419 45.0053 130.216 45.656C130.024 46.3173 129.758 46.9467 129.416 47.544L128.264 47.176C128.531 46.632 128.707 46.0773 128.792 45.512C128.878 44.9573 128.92 44.4347 128.92 43.944C128.92 43.8053 128.915 43.672 128.904 43.544C128.904 43.416 128.899 43.2933 128.888 43.176H130.504ZM138.161 38.872C138.054 39.928 137.974 40.984 137.921 42.04C137.868 43.0853 137.825 44.072 137.793 45H136.369C136.39 44.3493 136.422 43.672 136.465 42.968C136.508 42.2533 136.556 41.5387 136.609 40.824C136.662 40.0987 136.721 39.3893 136.785 38.696C136.849 37.992 136.918 37.32 136.993 36.68H138.353C138.694 37.2347 139.094 37.9973 139.553 38.968C140.012 39.928 140.54 41.0373 141.137 42.296C141.734 41.0373 142.262 39.928 142.721 38.968C143.18 37.9973 143.58 37.2347 143.921 36.68H145.297C145.372 37.32 145.441 37.992 145.505 38.696C145.569 39.3893 145.628 40.0987 145.681 40.824C145.734 41.5387 145.782 42.2533 145.825 42.968C145.868 43.672 145.9 44.3493 145.921 45H144.449C144.417 44.072 144.374 43.0853 144.321 42.04C144.268 40.984 144.188 39.928 144.081 38.872C143.91 39.2027 143.713 39.6027 143.489 40.072C143.265 40.5307 143.041 41 142.817 41.48C142.604 41.96 142.401 42.4187 142.209 42.856C142.017 43.2933 141.868 43.64 141.761 43.896H140.513C140.396 43.6293 140.236 43.2773 140.033 42.84C139.841 42.4027 139.633 41.944 139.409 41.464C139.196 40.9733 138.977 40.4987 138.753 40.04C138.529 39.5707 138.332 39.1813 138.161 38.872ZM147.816 40.856C147.816 40.12 147.923 39.48 148.136 38.936C148.349 38.3813 148.632 37.9227 148.984 37.56C149.336 37.1973 149.741 36.9253 150.2 36.744C150.659 36.5627 151.128 36.472 151.608 36.472C152.728 36.472 153.587 36.824 154.184 37.528C154.781 38.2213 155.08 39.2827 155.08 40.712C155.08 40.776 155.08 40.8613 155.08 40.968C155.08 41.064 155.075 41.1547 155.064 41.24H149.368C149.432 42.104 149.683 42.76 150.12 43.208C150.557 43.656 151.24 43.88 152.168 43.88C152.691 43.88 153.128 43.8373 153.48 43.752C153.843 43.656 154.115 43.5653 154.296 43.48L154.504 44.728C154.323 44.824 154.003 44.9253 153.544 45.032C153.096 45.1387 152.584 45.192 152.008 45.192C151.283 45.192 150.653 45.0853 150.12 44.872C149.597 44.648 149.165 44.344 148.824 43.96C148.483 43.576 148.227 43.1227 148.056 42.6C147.896 42.0667 147.816 41.4853 147.816 40.856ZM153.528 40.04C153.539 39.368 153.368 38.8187 153.016 38.392C152.675 37.9547 152.2 37.736 151.592 37.736C151.251 37.736 150.947 37.8053 150.68 37.944C150.424 38.072 150.205 38.2427 150.024 38.456C149.843 38.6693 149.699 38.9147 149.592 39.192C149.496 39.4693 149.432 39.752 149.4 40.04H153.528ZM160.834 45.192C160.162 45.192 159.57 45.0853 159.058 44.872C158.556 44.6587 158.13 44.36 157.778 43.976C157.436 43.592 157.18 43.1387 157.01 42.616C156.839 42.0827 156.754 41.496 156.754 40.856C156.754 40.216 156.844 39.6293 157.026 39.096C157.218 38.5627 157.484 38.104 157.826 37.72C158.167 37.3253 158.583 37.0213 159.074 36.808C159.575 36.584 160.13 36.472 160.738 36.472C161.111 36.472 161.484 36.504 161.858 36.568C162.231 36.632 162.588 36.7333 162.93 36.872L162.594 38.136C162.37 38.0293 162.108 37.944 161.81 37.88C161.522 37.816 161.212 37.784 160.882 37.784C160.05 37.784 159.41 38.0453 158.962 38.568C158.524 39.0907 158.306 39.8533 158.306 40.856C158.306 41.304 158.354 41.7147 158.45 42.088C158.556 42.4613 158.716 42.7813 158.93 43.048C159.154 43.3147 159.436 43.5227 159.778 43.672C160.119 43.8107 160.535 43.88 161.026 43.88C161.42 43.88 161.778 43.8427 162.098 43.768C162.418 43.6933 162.668 43.6133 162.85 43.528L163.058 44.776C162.972 44.8293 162.85 44.8827 162.69 44.936C162.53 44.9787 162.348 45.016 162.146 45.048C161.943 45.0907 161.724 45.1227 161.49 45.144C161.266 45.176 161.047 45.192 160.834 45.192ZM170.761 36.68V37.928H168.057V45H166.569V37.928H163.865V36.68H170.761ZM179.64 40.84C179.64 41.5013 179.544 42.0987 179.352 42.632C179.16 43.1653 178.888 43.624 178.536 44.008C178.194 44.392 177.784 44.6907 177.304 44.904C176.824 45.1067 176.301 45.208 175.736 45.208C175.17 45.208 174.648 45.1067 174.168 44.904C173.688 44.6907 173.272 44.392 172.92 44.008C172.578 43.624 172.312 43.1653 172.12 42.632C171.928 42.0987 171.832 41.5013 171.832 40.84C171.832 40.1893 171.928 39.5973 172.12 39.064C172.312 38.52 172.578 38.056 172.92 37.672C173.272 37.288 173.688 36.9947 174.168 36.792C174.648 36.5787 175.17 36.472 175.736 36.472C176.301 36.472 176.824 36.5787 177.304 36.792C177.784 36.9947 178.194 37.288 178.536 37.672C178.888 38.056 179.16 38.52 179.352 39.064C179.544 39.5973 179.64 40.1893 179.64 40.84ZM178.088 40.84C178.088 39.9013 177.874 39.16 177.448 38.616C177.032 38.0613 176.461 37.784 175.736 37.784C175.01 37.784 174.434 38.0613 174.008 38.616C173.592 39.16 173.384 39.9013 173.384 40.84C173.384 41.7787 173.592 42.5253 174.008 43.08C174.434 43.624 175.01 43.896 175.736 43.896C176.461 43.896 177.032 43.624 177.448 43.08C177.874 42.5253 178.088 41.7787 178.088 40.84ZM187.509 40.856C187.509 39.8853 187.269 39.1387 186.789 38.616C186.309 38.0933 185.669 37.832 184.869 37.832C184.421 37.832 184.069 37.848 183.813 37.88C183.568 37.912 183.37 37.9493 183.221 37.992V43.24C183.402 43.3893 183.664 43.5333 184.005 43.672C184.346 43.8107 184.72 43.88 185.125 43.88C185.552 43.88 185.914 43.8053 186.213 43.656C186.522 43.496 186.773 43.2827 186.965 43.016C187.157 42.7387 187.296 42.4187 187.381 42.056C187.466 41.6827 187.509 41.2827 187.509 40.856ZM189.061 40.856C189.061 41.4853 188.976 42.0667 188.805 42.6C188.645 43.1333 188.405 43.592 188.085 43.976C187.765 44.36 187.37 44.6587 186.901 44.872C186.442 45.0853 185.914 45.192 185.317 45.192C184.837 45.192 184.41 45.128 184.037 45C183.674 44.872 183.402 44.7493 183.221 44.632V47.96H181.733V36.936C182.085 36.8507 182.522 36.76 183.045 36.664C183.578 36.5573 184.192 36.504 184.885 36.504C185.525 36.504 186.101 36.6053 186.613 36.808C187.125 37.0107 187.562 37.2987 187.925 37.672C188.288 38.0453 188.565 38.504 188.757 39.048C188.96 39.5813 189.061 40.184 189.061 40.856ZM198.499 40.84C198.499 41.5013 198.403 42.0987 198.211 42.632C198.019 43.1653 197.747 43.624 197.395 44.008C197.054 44.392 196.643 44.6907 196.163 44.904C195.683 45.1067 195.16 45.208 194.595 45.208C194.03 45.208 193.507 45.1067 193.027 44.904C192.547 44.6907 192.131 44.392 191.779 44.008C191.438 43.624 191.171 43.1653 190.979 42.632C190.787 42.0987 190.691 41.5013 190.691 40.84C190.691 40.1893 190.787 39.5973 190.979 39.064C191.171 38.52 191.438 38.056 191.779 37.672C192.131 37.288 192.547 36.9947 193.027 36.792C193.507 36.5787 194.03 36.472 194.595 36.472C195.16 36.472 195.683 36.5787 196.163 36.792C196.643 36.9947 197.054 37.288 197.395 37.672C197.747 38.056 198.019 38.52 198.211 39.064C198.403 39.5973 198.499 40.1893 198.499 40.84ZM196.947 40.84C196.947 39.9013 196.734 39.16 196.307 38.616C195.891 38.0613 195.32 37.784 194.595 37.784C193.87 37.784 193.294 38.0613 192.867 38.616C192.451 39.16 192.243 39.9013 192.243 40.84C192.243 41.7787 192.451 42.5253 192.867 43.08C193.294 43.624 193.87 43.896 194.595 43.896C195.32 43.896 195.891 43.624 196.307 43.08C196.734 42.5253 196.947 41.7787 196.947 40.84ZM210.474 36.68C210.26 36.9467 210.02 37.24 209.754 37.56C209.487 37.8693 209.21 38.1947 208.922 38.536C208.634 38.8667 208.34 39.1973 208.042 39.528C207.754 39.8587 207.476 40.1733 207.21 40.472C207.53 40.7813 207.86 41.1173 208.202 41.48C208.543 41.8427 208.874 42.2213 209.194 42.616C209.524 43 209.839 43.4 210.138 43.816C210.436 44.2213 210.698 44.616 210.922 45H209.258C209.034 44.648 208.772 44.28 208.474 43.896C208.186 43.5013 207.882 43.1227 207.562 42.76C207.252 42.3973 206.938 42.0613 206.618 41.752C206.308 41.432 206.02 41.1707 205.754 40.968V45H204.33V40.968C204.063 41.1707 203.77 41.432 203.45 41.752C203.14 42.0613 202.826 42.3973 202.506 42.76C202.196 43.1227 201.892 43.5013 201.594 43.896C201.306 44.28 201.05 44.648 200.826 45H199.178C199.402 44.616 199.658 44.2213 199.946 43.816C200.244 43.4107 200.554 43.016 200.874 42.632C201.204 42.2373 201.54 41.8587 201.882 41.496C202.223 41.1333 202.554 40.7973 202.874 40.488C202.607 40.1893 202.324 39.8747 202.026 39.544C201.738 39.2133 201.45 38.8827 201.162 38.552C200.874 38.2107 200.596 37.8853 200.33 37.576C200.063 37.256 199.818 36.9573 199.594 36.68H201.242C201.626 37.16 202.068 37.6933 202.57 38.28C203.071 38.8667 203.658 39.544 204.33 40.312V36.68H205.754V40.312C206.426 39.544 207.012 38.8667 207.514 38.28C208.015 37.6933 208.458 37.16 208.842 36.68H210.474ZM211.772 43.784H212.668C213.02 43.272 213.297 42.744 213.5 42.2C213.713 41.656 213.873 41.096 213.98 40.52C214.086 39.9333 214.156 39.3253 214.188 38.696C214.22 38.056 214.241 37.384 214.252 36.68H219.708V43.784H220.828V47.32H219.42V45H213.18V47.32H211.772V43.784ZM218.22 43.784V37.928H215.612C215.601 38.4293 215.574 38.936 215.532 39.448C215.489 39.9493 215.42 40.4507 215.324 40.952C215.228 41.4427 215.089 41.928 214.908 42.408C214.737 42.8773 214.518 43.336 214.252 43.784H218.22ZM221.972 40.856C221.972 40.12 222.079 39.48 222.292 38.936C222.506 38.3813 222.788 37.9227 223.14 37.56C223.492 37.1973 223.898 36.9253 224.356 36.744C224.815 36.5627 225.284 36.472 225.764 36.472C226.884 36.472 227.743 36.824 228.34 37.528C228.938 38.2213 229.236 39.2827 229.236 40.712C229.236 40.776 229.236 40.8613 229.236 40.968C229.236 41.064 229.231 41.1547 229.22 41.24H223.524C223.588 42.104 223.839 42.76 224.276 43.208C224.714 43.656 225.396 43.88 226.324 43.88C226.847 43.88 227.284 43.8373 227.636 43.752C227.999 43.656 228.271 43.5653 228.452 43.48L228.66 44.728C228.479 44.824 228.159 44.9253 227.7 45.032C227.252 45.1387 226.74 45.192 226.164 45.192C225.439 45.192 224.81 45.0853 224.276 44.872C223.754 44.648 223.322 44.344 222.98 43.96C222.639 43.576 222.383 43.1227 222.212 42.6C222.052 42.0667 221.972 41.4853 221.972 40.856ZM227.684 40.04C227.695 39.368 227.524 38.8187 227.172 38.392C226.831 37.9547 226.356 37.736 225.748 37.736C225.407 37.736 225.103 37.8053 224.836 37.944C224.58 38.072 224.362 38.2427 224.18 38.456C223.999 38.6693 223.855 38.9147 223.748 39.192C223.652 39.4693 223.588 39.752 223.556 40.04H227.684ZM238.19 45H236.702V41.32H232.862V45H231.374V36.68H232.862V40.072H236.702V36.68H238.19V45ZM247.741 36.68V45H246.301V38.664C245.981 39.0693 245.629 39.544 245.245 40.088C244.861 40.632 244.477 41.1973 244.093 41.784C243.709 42.36 243.341 42.9307 242.989 43.496C242.637 44.0613 242.333 44.5627 242.077 45H240.749V36.68H242.189V42.664C242.466 42.2053 242.781 41.704 243.133 41.16C243.485 40.6053 243.847 40.0613 244.221 39.528C244.605 38.984 244.983 38.4667 245.357 37.976C245.741 37.4747 246.098 37.0427 246.429 36.68H247.741ZM249.832 40.856C249.832 40.12 249.938 39.48 250.152 38.936C250.365 38.3813 250.648 37.9227 251 37.56C251.352 37.1973 251.757 36.9253 252.216 36.744C252.674 36.5627 253.144 36.472 253.624 36.472C254.744 36.472 255.602 36.824 256.2 37.528C256.797 38.2213 257.096 39.2827 257.096 40.712C257.096 40.776 257.096 40.8613 257.096 40.968C257.096 41.064 257.09 41.1547 257.08 41.24H251.384C251.448 42.104 251.698 42.76 252.136 43.208C252.573 43.656 253.256 43.88 254.184 43.88C254.706 43.88 255.144 43.8373 255.496 43.752C255.858 43.656 256.13 43.5653 256.312 43.48L256.52 44.728C256.338 44.824 256.018 44.9253 255.56 45.032C255.112 45.1387 254.6 45.192 254.024 45.192C253.298 45.192 252.669 45.0853 252.136 44.872C251.613 44.648 251.181 44.344 250.84 43.96C250.498 43.576 250.242 43.1227 250.072 42.6C249.912 42.0667 249.832 41.4853 249.832 40.856ZM255.544 40.04C255.554 39.368 255.384 38.8187 255.032 38.392C254.69 37.9547 254.216 37.736 253.608 37.736C253.266 37.736 252.962 37.8053 252.696 37.944C252.44 38.072 252.221 38.2427 252.04 38.456C251.858 38.6693 251.714 38.9147 251.608 39.192C251.512 39.4693 251.448 39.752 251.416 40.04H255.544ZM262.136 40.456L264.632 36.92L265.672 37.48L263.896 40.456L265.672 43.432L264.632 43.992L262.136 40.456ZM265.464 40.456L267.96 36.92L269 37.48L267.224 40.456L269 43.432L267.96 43.992L265.464 40.456ZM277.19 33.912V35.256H273.702V45H272.15V35.256H268.662V33.912H277.19ZM277.398 46.552C277.515 46.6053 277.664 46.6533 277.846 46.696C278.038 46.7493 278.224 46.776 278.406 46.776C278.992 46.776 279.451 46.6427 279.782 46.376C280.112 46.12 280.411 45.6987 280.678 45.112C280.006 43.832 279.376 42.4773 278.79 41.048C278.214 39.608 277.734 38.152 277.35 36.68H278.95C279.067 37.16 279.206 37.6773 279.366 38.232C279.536 38.7867 279.723 39.3573 279.926 39.944C280.128 40.5307 280.347 41.1173 280.582 41.704C280.816 42.2907 281.062 42.856 281.318 43.4C281.723 42.28 282.075 41.1707 282.374 40.072C282.672 38.9733 282.955 37.8427 283.222 36.68H284.758C284.374 38.248 283.947 39.7573 283.478 41.208C283.008 42.648 282.502 43.9973 281.958 45.256C281.744 45.736 281.52 46.1467 281.286 46.488C281.062 46.84 280.811 47.128 280.534 47.352C280.256 47.576 279.942 47.7413 279.59 47.848C279.248 47.9547 278.859 48.008 278.422 48.008C278.304 48.008 278.182 47.9973 278.054 47.976C277.926 47.9653 277.798 47.944 277.67 47.912C277.552 47.8907 277.44 47.864 277.334 47.832C277.238 47.8 277.168 47.7733 277.126 47.752L277.398 46.552ZM292.103 40.856C292.103 39.8853 291.863 39.1387 291.383 38.616C290.903 38.0933 290.263 37.832 289.463 37.832C289.015 37.832 288.663 37.848 288.407 37.88C288.162 37.912 287.964 37.9493 287.815 37.992V43.24C287.996 43.3893 288.258 43.5333 288.599 43.672C288.94 43.8107 289.314 43.88 289.719 43.88C290.146 43.88 290.508 43.8053 290.807 43.656C291.116 43.496 291.367 43.2827 291.559 43.016C291.751 42.7387 291.89 42.4187 291.975 42.056C292.06 41.6827 292.103 41.2827 292.103 40.856ZM293.655 40.856C293.655 41.4853 293.57 42.0667 293.399 42.6C293.239 43.1333 292.999 43.592 292.679 43.976C292.359 44.36 291.964 44.6587 291.495 44.872C291.036 45.0853 290.508 45.192 289.911 45.192C289.431 45.192 289.004 45.128 288.631 45C288.268 44.872 287.996 44.7493 287.815 44.632V47.96H286.327V36.936C286.679 36.8507 287.116 36.76 287.639 36.664C288.172 36.5573 288.786 36.504 289.479 36.504C290.119 36.504 290.695 36.6053 291.207 36.808C291.719 37.0107 292.156 37.2987 292.519 37.672C292.882 38.0453 293.159 38.504 293.351 39.048C293.554 39.5813 293.655 40.184 293.655 40.856ZM294.554 46.552C294.671 46.6053 294.821 46.6533 295.002 46.696C295.194 46.7493 295.381 46.776 295.562 46.776C296.149 46.776 296.607 46.6427 296.938 46.376C297.269 46.12 297.567 45.6987 297.834 45.112C297.162 43.832 296.533 42.4773 295.946 41.048C295.37 39.608 294.89 38.152 294.506 36.68H296.106C296.223 37.16 296.362 37.6773 296.522 38.232C296.693 38.7867 296.879 39.3573 297.082 39.944C297.285 40.5307 297.503 41.1173 297.738 41.704C297.973 42.2907 298.218 42.856 298.474 43.4C298.879 42.28 299.231 41.1707 299.53 40.072C299.829 38.9733 300.111 37.8427 300.378 36.68H301.914C301.53 38.248 301.103 39.7573 300.634 41.208C300.165 42.648 299.658 43.9973 299.114 45.256C298.901 45.736 298.677 46.1467 298.442 46.488C298.218 46.84 297.967 47.128 297.69 47.352C297.413 47.576 297.098 47.7413 296.746 47.848C296.405 47.9547 296.015 48.008 295.578 48.008C295.461 48.008 295.338 47.9973 295.21 47.976C295.082 47.9653 294.954 47.944 294.826 47.912C294.709 47.8907 294.597 47.864 294.49 47.832C294.394 47.8 294.325 47.7733 294.282 47.752L294.554 46.552ZM310.299 45H308.811V41.32H304.971V45H303.483V36.68H304.971V40.072H308.811V36.68H310.299V45ZM311.834 43.784H312.73C313.082 43.272 313.359 42.744 313.562 42.2C313.775 41.656 313.935 41.096 314.042 40.52C314.149 39.9333 314.218 39.3253 314.25 38.696C314.282 38.056 314.303 37.384 314.314 36.68H319.77V43.784H320.89V47.32H319.482V45H313.242V47.32H311.834V43.784ZM318.282 43.784V37.928H315.674C315.663 38.4293 315.637 38.936 315.594 39.448C315.551 39.9493 315.482 40.4507 315.386 40.952C315.29 41.4427 315.151 41.928 314.97 42.408C314.799 42.8773 314.581 43.336 314.314 43.784H318.282ZM325.315 43.928C325.667 43.928 325.976 43.9227 326.243 43.912C326.52 43.8907 326.749 43.8587 326.931 43.816V41.336C326.824 41.2827 326.648 41.24 326.403 41.208C326.168 41.1653 325.88 41.144 325.539 41.144C325.315 41.144 325.075 41.16 324.819 41.192C324.573 41.224 324.344 41.2933 324.131 41.4C323.928 41.496 323.757 41.6347 323.619 41.816C323.48 41.9867 323.411 42.216 323.411 42.504C323.411 43.0373 323.581 43.4107 323.923 43.624C324.264 43.8267 324.728 43.928 325.315 43.928ZM325.187 36.472C325.784 36.472 326.285 36.552 326.691 36.712C327.107 36.8613 327.437 37.08 327.683 37.368C327.939 37.6453 328.12 37.9813 328.227 38.376C328.333 38.76 328.387 39.1867 328.387 39.656V44.856C328.259 44.8773 328.077 44.9093 327.843 44.952C327.619 44.984 327.363 45.016 327.075 45.048C326.787 45.08 326.472 45.1067 326.131 45.128C325.8 45.16 325.469 45.176 325.139 45.176C324.669 45.176 324.237 45.128 323.843 45.032C323.448 44.936 323.107 44.7867 322.819 44.584C322.531 44.3707 322.307 44.0933 322.147 43.752C321.987 43.4107 321.907 43 321.907 42.52C321.907 42.0613 321.997 41.6667 322.179 41.336C322.371 41.0053 322.627 40.7387 322.947 40.536C323.267 40.3333 323.64 40.184 324.067 40.088C324.493 39.992 324.941 39.944 325.411 39.944C325.56 39.944 325.715 39.9547 325.875 39.976C326.035 39.9867 326.184 40.008 326.323 40.04C326.472 40.0613 326.6 40.0827 326.707 40.104C326.813 40.1253 326.888 40.1413 326.931 40.152V39.736C326.931 39.4907 326.904 39.2507 326.851 39.016C326.797 38.7707 326.701 38.5573 326.563 38.376C326.424 38.184 326.232 38.0347 325.987 37.928C325.752 37.8107 325.443 37.752 325.059 37.752C324.568 37.752 324.136 37.7893 323.763 37.864C323.4 37.928 323.128 37.9973 322.947 38.072L322.771 36.84C322.963 36.7547 323.283 36.6747 323.731 36.6C324.179 36.5147 324.664 36.472 325.187 36.472ZM330.394 40.856C330.394 40.12 330.501 39.48 330.714 38.936C330.927 38.3813 331.21 37.9227 331.562 37.56C331.914 37.1973 332.319 36.9253 332.778 36.744C333.237 36.5627 333.706 36.472 334.186 36.472C335.306 36.472 336.165 36.824 336.762 37.528C337.359 38.2213 337.658 39.2827 337.658 40.712C337.658 40.776 337.658 40.8613 337.658 40.968C337.658 41.064 337.653 41.1547 337.642 41.24H331.946C332.01 42.104 332.261 42.76 332.698 43.208C333.135 43.656 333.818 43.88 334.746 43.88C335.269 43.88 335.706 43.8373 336.058 43.752C336.421 43.656 336.693 43.5653 336.874 43.48L337.082 44.728C336.901 44.824 336.581 44.9253 336.122 45.032C335.674 45.1387 335.162 45.192 334.586 45.192C333.861 45.192 333.231 45.0853 332.698 44.872C332.175 44.648 331.743 44.344 331.402 43.96C331.061 43.576 330.805 43.1227 330.634 42.6C330.474 42.0667 330.394 41.4853 330.394 40.856ZM336.106 40.04C336.117 39.368 335.946 38.8187 335.594 38.392C335.253 37.9547 334.778 37.736 334.17 37.736C333.829 37.736 333.525 37.8053 333.258 37.944C333.002 38.072 332.783 38.2427 332.602 38.456C332.421 38.6693 332.277 38.9147 332.17 39.192C332.074 39.4693 332.01 39.752 331.978 40.04H336.106ZM341.252 43.88C341.316 43.8907 341.406 43.9013 341.524 43.912C341.641 43.9227 341.774 43.9333 341.924 43.944C342.073 43.944 342.228 43.9493 342.388 43.96C342.558 43.96 342.718 43.96 342.868 43.96C343.177 43.96 343.47 43.9387 343.748 43.896C344.036 43.8533 344.281 43.7787 344.484 43.672C344.697 43.5653 344.862 43.4267 344.98 43.256C345.108 43.0747 345.172 42.8453 345.172 42.568C345.172 42.3013 345.113 42.0827 344.996 41.912C344.889 41.7307 344.74 41.5867 344.548 41.48C344.356 41.3733 344.126 41.2987 343.86 41.256C343.604 41.2133 343.326 41.192 343.028 41.192H341.252V43.88ZM342.836 40.088C343.124 40.088 343.385 40.072 343.62 40.04C343.865 39.9973 344.073 39.928 344.244 39.832C344.425 39.736 344.564 39.608 344.66 39.448C344.766 39.288 344.82 39.0853 344.82 38.84C344.82 38.584 344.756 38.3813 344.628 38.232C344.5 38.0827 344.329 37.9707 344.116 37.896C343.913 37.8107 343.678 37.7573 343.412 37.736C343.156 37.704 342.894 37.688 342.628 37.688C342.382 37.688 342.132 37.6933 341.876 37.704C341.63 37.7147 341.422 37.7253 341.252 37.736V40.088H342.836ZM342.804 45.144C342.174 45.144 341.593 45.112 341.06 45.048C340.526 44.9947 340.105 44.9307 339.796 44.856V36.76C340.105 36.6853 340.526 36.6213 341.06 36.568C341.593 36.504 342.174 36.472 342.804 36.472C343.241 36.472 343.668 36.5093 344.084 36.584C344.5 36.6587 344.868 36.7867 345.188 36.968C345.508 37.1387 345.764 37.3787 345.956 37.688C346.158 37.9867 346.26 38.36 346.26 38.808C346.26 39.2133 346.158 39.56 345.956 39.848C345.753 40.136 345.481 40.36 345.14 40.52C345.598 40.68 345.961 40.92 346.228 41.24C346.505 41.5493 346.644 41.9867 346.644 42.552C346.644 43.0533 346.542 43.4693 346.34 43.8C346.148 44.1307 345.876 44.3973 345.524 44.6C345.182 44.8027 344.777 44.9413 344.308 45.016C343.838 45.1013 343.337 45.144 342.804 45.144ZM352.177 45.192C351.505 45.192 350.913 45.0853 350.401 44.872C349.9 44.6587 349.473 44.36 349.121 43.976C348.78 43.592 348.524 43.1387 348.353 42.616C348.183 42.0827 348.097 41.496 348.097 40.856C348.097 40.216 348.188 39.6293 348.369 39.096C348.561 38.5627 348.828 38.104 349.169 37.72C349.511 37.3253 349.927 37.0213 350.417 36.808C350.919 36.584 351.473 36.472 352.081 36.472C352.455 36.472 352.828 36.504 353.201 36.568C353.575 36.632 353.932 36.7333 354.273 36.872L353.937 38.136C353.713 38.0293 353.452 37.944 353.153 37.88C352.865 37.816 352.556 37.784 352.225 37.784C351.393 37.784 350.753 38.0453 350.305 38.568C349.868 39.0907 349.649 39.8533 349.649 40.856C349.649 41.304 349.697 41.7147 349.793 42.088C349.9 42.4613 350.06 42.7813 350.273 43.048C350.497 43.3147 350.78 43.5227 351.121 43.672C351.463 43.8107 351.879 43.88 352.369 43.88C352.764 43.88 353.121 43.8427 353.441 43.768C353.761 43.6933 354.012 43.6133 354.193 43.528L354.401 44.776C354.316 44.8293 354.193 44.8827 354.033 44.936C353.873 44.9787 353.692 45.016 353.489 45.048C353.287 45.0907 353.068 45.1227 352.833 45.144C352.609 45.176 352.391 45.192 352.177 45.192ZM359.039 40.472C359.369 40.7067 359.727 41.0053 360.111 41.368C360.495 41.72 360.868 42.104 361.231 42.52C361.604 42.936 361.951 43.3627 362.271 43.8C362.591 44.2267 362.863 44.6267 363.087 45H361.327C361.092 44.6373 360.815 44.2693 360.495 43.896C360.185 43.512 359.86 43.144 359.519 42.792C359.177 42.44 358.831 42.1147 358.479 41.816C358.127 41.5173 357.796 41.2667 357.487 41.064V45H355.999V36.68H357.487V40.248C357.743 40.0027 358.036 39.72 358.367 39.4C358.697 39.0693 359.028 38.7387 359.359 38.408C359.7 38.0667 360.015 37.7467 360.303 37.448C360.591 37.1387 360.825 36.8827 361.007 36.68H362.735C362.5 36.936 362.223 37.2293 361.903 37.56C361.593 37.88 361.268 38.2107 360.927 38.552C360.596 38.8933 360.265 39.2347 359.935 39.576C359.604 39.9067 359.305 40.2053 359.039 40.472ZM371.468 40.84C371.468 41.5013 371.372 42.0987 371.18 42.632C370.988 43.1653 370.716 43.624 370.364 44.008C370.022 44.392 369.612 44.6907 369.132 44.904C368.652 45.1067 368.129 45.208 367.564 45.208C366.998 45.208 366.476 45.1067 365.996 44.904C365.516 44.6907 365.1 44.392 364.748 44.008C364.406 43.624 364.14 43.1653 363.948 42.632C363.756 42.0987 363.66 41.5013 363.66 40.84C363.66 40.1893 363.756 39.5973 363.948 39.064C364.14 38.52 364.406 38.056 364.748 37.672C365.1 37.288 365.516 36.9947 365.996 36.792C366.476 36.5787 366.998 36.472 367.564 36.472C368.129 36.472 368.652 36.5787 369.132 36.792C369.612 36.9947 370.022 37.288 370.364 37.672C370.716 38.056 370.988 38.52 371.18 39.064C371.372 39.5973 371.468 40.1893 371.468 40.84ZM369.916 40.84C369.916 39.9013 369.702 39.16 369.276 38.616C368.86 38.0613 368.289 37.784 367.564 37.784C366.838 37.784 366.262 38.0613 365.836 38.616C365.42 39.16 365.212 39.9013 365.212 40.84C365.212 41.7787 365.42 42.5253 365.836 43.08C366.262 43.624 366.838 43.896 367.564 43.896C368.289 43.896 368.86 43.624 369.276 43.08C369.702 42.5253 369.916 41.7787 369.916 40.84ZM373.097 40.856C373.097 40.12 373.204 39.48 373.417 38.936C373.631 38.3813 373.913 37.9227 374.265 37.56C374.617 37.1973 375.023 36.9253 375.481 36.744C375.94 36.5627 376.409 36.472 376.889 36.472C378.009 36.472 378.868 36.824 379.465 37.528C380.063 38.2213 380.361 39.2827 380.361 40.712C380.361 40.776 380.361 40.8613 380.361 40.968C380.361 41.064 380.356 41.1547 380.345 41.24H374.649C374.713 42.104 374.964 42.76 375.401 43.208C375.839 43.656 376.521 43.88 377.449 43.88C377.972 43.88 378.409 43.8373 378.761 43.752C379.124 43.656 379.396 43.5653 379.577 43.48L379.785 44.728C379.604 44.824 379.284 44.9253 378.825 45.032C378.377 45.1387 377.865 45.192 377.289 45.192C376.564 45.192 375.935 45.0853 375.401 44.872C374.879 44.648 374.447 44.344 374.105 43.96C373.764 43.576 373.508 43.1227 373.337 42.6C373.177 42.0667 373.097 41.4853 373.097 40.856ZM378.809 40.04C378.82 39.368 378.649 38.8187 378.297 38.392C377.956 37.9547 377.481 37.736 376.873 37.736C376.532 37.736 376.228 37.8053 375.961 37.944C375.705 38.072 375.487 38.2427 375.305 38.456C375.124 38.6693 374.98 38.9147 374.873 39.192C374.777 39.4693 374.713 39.752 374.681 40.04H378.809ZM382.899 43.992L381.859 43.432L383.635 40.456L381.859 37.48L382.899 36.92L385.395 40.456L382.899 43.992ZM386.227 43.992L385.187 43.432L386.963 40.456L385.187 37.48L386.227 36.92L388.723 40.456L386.227 43.992ZM399.338 37.928H395.674V45H394.186V36.68H399.338V37.928ZM401.368 44.136C401.368 44.424 401.272 44.6747 401.08 44.888C400.888 45.1013 400.627 45.208 400.296 45.208C399.965 45.208 399.704 45.1013 399.512 44.888C399.32 44.6747 399.224 44.424 399.224 44.136C399.224 43.848 399.32 43.5973 399.512 43.384C399.704 43.1707 399.965 43.064 400.296 43.064C400.627 43.064 400.888 43.1707 401.08 43.384C401.272 43.5973 401.368 43.848 401.368 44.136ZM410.337 45.096C410.113 45.096 409.867 45.0907 409.601 45.08C409.345 45.0693 409.083 45.0533 408.817 45.032C408.561 45.0107 408.305 44.984 408.049 44.952C407.793 44.92 407.558 44.8773 407.345 44.824V34.072C407.558 34.0187 407.793 33.976 408.049 33.944C408.305 33.912 408.561 33.8853 408.817 33.864C409.083 33.8427 409.345 33.8267 409.601 33.816C409.857 33.8053 410.097 33.8 410.321 33.8C410.961 33.8 411.558 33.848 412.113 33.944C412.678 34.04 413.163 34.2053 413.569 34.44C413.985 34.664 414.31 34.9627 414.545 35.336C414.779 35.7093 414.897 36.168 414.897 36.712C414.897 37.32 414.753 37.8213 414.465 38.216C414.177 38.6 413.793 38.888 413.313 39.08C413.963 39.272 414.481 39.576 414.865 39.992C415.249 40.408 415.441 40.9947 415.441 41.752C415.441 42.8613 415.03 43.6987 414.209 44.264C413.398 44.8187 412.107 45.096 410.337 45.096ZM408.881 39.832V43.736C408.998 43.7467 409.137 43.7573 409.297 43.768C409.435 43.7787 409.595 43.7893 409.777 43.8C409.969 43.8 410.187 43.8 410.433 43.8C410.891 43.8 411.323 43.7733 411.729 43.72C412.145 43.656 412.507 43.5493 412.817 43.4C413.126 43.2507 413.371 43.0427 413.553 42.776C413.745 42.5093 413.841 42.1733 413.841 41.768C413.841 41.4053 413.771 41.1013 413.633 40.856C413.494 40.6 413.291 40.3973 413.025 40.248C412.769 40.0987 412.459 39.992 412.097 39.928C411.734 39.864 411.329 39.832 410.881 39.832H408.881ZM408.881 38.584H410.513C410.897 38.584 411.259 38.5573 411.601 38.504C411.942 38.4507 412.235 38.3547 412.481 38.216C412.737 38.0773 412.934 37.896 413.073 37.672C413.222 37.448 413.297 37.1653 413.297 36.824C413.297 36.504 413.222 36.2373 413.073 36.024C412.923 35.8 412.715 35.624 412.449 35.496C412.193 35.3573 411.889 35.256 411.537 35.192C411.185 35.128 410.811 35.096 410.417 35.096C410.022 35.096 409.713 35.1013 409.489 35.112C409.265 35.1227 409.062 35.1387 408.881 35.16V38.584ZM424.874 40.84C424.874 41.5013 424.778 42.0987 424.586 42.632C424.394 43.1653 424.122 43.624 423.77 44.008C423.429 44.392 423.018 44.6907 422.538 44.904C422.058 45.1067 421.535 45.208 420.97 45.208C420.405 45.208 419.882 45.1067 419.402 44.904C418.922 44.6907 418.506 44.392 418.154 44.008C417.813 43.624 417.546 43.1653 417.354 42.632C417.162 42.0987 417.066 41.5013 417.066 40.84C417.066 40.1893 417.162 39.5973 417.354 39.064C417.546 38.52 417.813 38.056 418.154 37.672C418.506 37.288 418.922 36.9947 419.402 36.792C419.882 36.5787 420.405 36.472 420.97 36.472C421.535 36.472 422.058 36.5787 422.538 36.792C423.018 36.9947 423.429 37.288 423.77 37.672C424.122 38.056 424.394 38.52 424.586 39.064C424.778 39.5973 424.874 40.1893 424.874 40.84ZM423.322 40.84C423.322 39.9013 423.109 39.16 422.682 38.616C422.266 38.0613 421.695 37.784 420.97 37.784C420.245 37.784 419.669 38.0613 419.242 38.616C418.826 39.16 418.618 39.9013 418.618 40.84C418.618 41.7787 418.826 42.5253 419.242 43.08C419.669 43.624 420.245 43.896 420.97 43.896C421.695 43.896 422.266 43.624 422.682 43.08C423.109 42.5253 423.322 41.7787 423.322 40.84ZM429.864 37.928C429.864 38.28 429.853 38.6587 429.832 39.064C429.821 39.4587 429.794 39.8587 429.752 40.264C429.709 40.6587 429.65 41.0533 429.576 41.448C429.501 41.832 429.405 42.1947 429.288 42.536C429.17 42.8773 429.021 43.1973 428.84 43.496C428.669 43.7947 428.456 44.0613 428.2 44.296C427.944 44.52 427.645 44.712 427.304 44.872C426.962 45.0213 426.562 45.1173 426.104 45.16L425.896 43.912C426.418 43.8053 426.829 43.608 427.128 43.32C427.437 43.032 427.682 42.68 427.864 42.264C428.024 41.9013 428.141 41.4907 428.216 41.032C428.29 40.5733 428.344 40.0987 428.376 39.608C428.408 39.1067 428.424 38.6053 428.424 38.104C428.434 37.6027 428.44 37.128 428.44 36.68H433.976V45H432.488V37.928H429.864ZM443.874 40.84C443.874 41.5013 443.778 42.0987 443.586 42.632C443.394 43.1653 443.122 43.624 442.77 44.008C442.429 44.392 442.018 44.6907 441.538 44.904C441.058 45.1067 440.535 45.208 439.97 45.208C439.405 45.208 438.882 45.1067 438.402 44.904C437.922 44.6907 437.506 44.392 437.154 44.008C436.813 43.624 436.546 43.1653 436.354 42.632C436.162 42.0987 436.066 41.5013 436.066 40.84C436.066 40.1893 436.162 39.5973 436.354 39.064C436.546 38.52 436.813 38.056 437.154 37.672C437.506 37.288 437.922 36.9947 438.402 36.792C438.882 36.5787 439.405 36.472 439.97 36.472C440.535 36.472 441.058 36.5787 441.538 36.792C442.018 36.9947 442.429 37.288 442.77 37.672C443.122 38.056 443.394 38.52 443.586 39.064C443.778 39.5973 443.874 40.1893 443.874 40.84ZM442.322 40.84C442.322 39.9013 442.109 39.16 441.682 38.616C441.266 38.0613 440.695 37.784 439.97 37.784C439.245 37.784 438.669 38.0613 438.242 38.616C437.826 39.16 437.618 39.9013 437.618 40.84C437.618 41.7787 437.826 42.5253 438.242 43.08C438.669 43.624 439.245 43.896 439.97 43.896C440.695 43.896 441.266 43.624 441.682 43.08C442.109 42.5253 442.322 41.7787 442.322 40.84ZM451.12 37.928H447.456V45H445.968V36.68H451.12V37.928ZM450.928 43.784H451.824C452.176 43.272 452.453 42.744 452.656 42.2C452.869 41.656 453.029 41.096 453.136 40.52C453.243 39.9333 453.312 39.3253 453.344 38.696C453.376 38.056 453.397 37.384 453.408 36.68H458.864V43.784H459.984V47.32H458.576V45H452.336V47.32H450.928V43.784ZM457.376 43.784V37.928H454.768C454.757 38.4293 454.731 38.936 454.688 39.448C454.645 39.9493 454.576 40.4507 454.48 40.952C454.384 41.4427 454.245 41.928 454.064 42.408C453.893 42.8773 453.675 43.336 453.408 43.784H457.376ZM464.409 43.928C464.761 43.928 465.07 43.9227 465.337 43.912C465.614 43.8907 465.843 43.8587 466.025 43.816V41.336C465.918 41.2827 465.742 41.24 465.497 41.208C465.262 41.1653 464.974 41.144 464.633 41.144C464.409 41.144 464.169 41.16 463.913 41.192C463.667 41.224 463.438 41.2933 463.225 41.4C463.022 41.496 462.851 41.6347 462.713 41.816C462.574 41.9867 462.505 42.216 462.505 42.504C462.505 43.0373 462.675 43.4107 463.017 43.624C463.358 43.8267 463.822 43.928 464.409 43.928ZM464.281 36.472C464.878 36.472 465.379 36.552 465.785 36.712C466.201 36.8613 466.531 37.08 466.777 37.368C467.033 37.6453 467.214 37.9813 467.321 38.376C467.427 38.76 467.481 39.1867 467.481 39.656V44.856C467.353 44.8773 467.171 44.9093 466.937 44.952C466.713 44.984 466.457 45.016 466.169 45.048C465.881 45.08 465.566 45.1067 465.225 45.128C464.894 45.16 464.563 45.176 464.233 45.176C463.763 45.176 463.331 45.128 462.937 45.032C462.542 44.936 462.201 44.7867 461.913 44.584C461.625 44.3707 461.401 44.0933 461.241 43.752C461.081 43.4107 461.001 43 461.001 42.52C461.001 42.0613 461.091 41.6667 461.273 41.336C461.465 41.0053 461.721 40.7387 462.041 40.536C462.361 40.3333 462.734 40.184 463.161 40.088C463.587 39.992 464.035 39.944 464.505 39.944C464.654 39.944 464.809 39.9547 464.969 39.976C465.129 39.9867 465.278 40.008 465.417 40.04C465.566 40.0613 465.694 40.0827 465.801 40.104C465.907 40.1253 465.982 40.1413 466.025 40.152V39.736C466.025 39.4907 465.998 39.2507 465.945 39.016C465.891 38.7707 465.795 38.5573 465.657 38.376C465.518 38.184 465.326 38.0347 465.081 37.928C464.846 37.8107 464.537 37.752 464.153 37.752C463.662 37.752 463.23 37.7893 462.857 37.864C462.494 37.928 462.222 37.9973 462.041 38.072L461.865 36.84C462.057 36.7547 462.377 36.6747 462.825 36.6C463.273 36.5147 463.758 36.472 464.281 36.472Z" fill="#464D58"/>
</svg>
