<svg width="412" height="248" viewBox="0 0 412 248" fill="none" xmlns="http://www.w3.org/2000/svg">
<path d="M194.768 61.9231C154.436 42.2288 101.696 11.1526 0.297241 56.0827C1.16228 69.2304 3.2708 82.052 6.48765 94.4118C27.3566 88.49 46.1171 85.7464 64.445 85.7464C98.8572 85.7464 131.756 95.3083 174.359 111.118C210.771 124.646 276.703 152.517 376.29 100.198C328.713 130.215 293.112 142.52 252.725 142.52C229.667 142.52 205.608 138.038 178.765 128.069C142.19 114.486 112.725 107.75 83.3136 107.75C61.3633 107.75 39.4671 111.553 14.6514 118.969C45.0898 194.567 119.213 248 205.932 248C309.385 248 406.485 167.865 412 47.8519C357.773 123.315 251.293 89.5494 194.768 61.9231Z" fill="#DFECF8"/>
<path d="M0 43.5871C89.8555 -8.05265 157.626 19.0304 190.767 36.9589C258.943 73.8483 387.995 107.288 408.999 4.06273C378.399 78.575 295.139 58.7177 188.767 10.9082C160.41 -1.80481 84.2328 -14.9524 0 43.5871Z" fill="#DFECF8"/>
</svg>
