<svg width="412" height="248" viewBox="0 0 412 248" fill="none" xmlns="http://www.w3.org/2000/svg">
<path d="M194.768 61.9231C154.435 42.2288 101.695 11.1527 0.296875 56.0828C1.16191 69.2304 3.27043 82.052 6.48728 94.4119C27.3563 88.49 46.1167 85.7464 64.4446 85.7464C98.8568 85.7464 131.755 95.3083 174.358 111.118C210.771 124.646 276.703 152.517 376.29 100.198C328.713 130.215 293.111 142.52 252.725 142.52C229.666 142.52 205.608 138.038 178.764 128.069C142.19 114.486 112.724 107.75 83.3132 107.75C61.3629 107.75 39.4667 111.553 14.651 118.969C45.0895 194.567 119.212 248 205.932 248C309.385 248 406.485 167.865 412 47.8519C357.773 123.315 251.292 89.5494 194.768 61.9231Z" fill="#6096DE"/>
<path d="M0 43.5871C89.8555 -8.05265 157.626 19.0304 190.767 36.9589C258.943 73.8483 387.995 107.288 408.999 4.06273C378.399 78.575 295.139 58.7177 188.767 10.9082C160.41 -1.80481 84.2328 -14.9524 0 43.5871Z" fill="#6096DE"/>
</svg>
