<svg width="202" height="202" viewBox="0 0 202 202" fill="none" xmlns="http://www.w3.org/2000/svg">
<rect x="0.5" y="0.5" width="201" height="201" fill="white" stroke="#EDE0D5"/>
<mask id="mask0_180_2843" style="mask-type:alpha" maskUnits="userSpaceOnUse" x="25" y="25" width="152" height="152">
<rect x="25.5" y="25.5" width="151" height="151" fill="white" stroke="#EDE0D5"/>
</mask>
<g mask="url(#mask0_180_2843)">
<path d="M62.6272 82.9134C61.8441 82.9134 61.213 82.2697 61.213 81.488C61.213 80.7063 61.8517 80.0625 62.6272 80.0625C63.4103 80.0625 64.0413 80.7063 64.0413 81.488C64.0413 82.2697 63.4027 82.9134 62.6272 82.9134ZM62.6272 80.3844C62.0265 80.3844 61.5323 80.8825 61.5323 81.488C61.5323 82.0934 62.0265 82.5916 62.6272 82.5916C63.2278 82.5916 63.722 82.0934 63.722 81.488C63.722 80.8825 63.2278 80.3844 62.6272 80.3844Z" fill="#9C182F"/>
<path d="M63.8055 81.9958L63.6018 82.2534L64.6122 83.0651L64.8158 82.8075L63.8055 81.9958Z" fill="#9C182F"/>
<path d="M63.736 79.2646L63.1592 80.3438L63.4469 80.5001L64.0236 79.4209L63.736 79.2646Z" fill="#9C182F"/>
<path d="M60.1988 80.0597L60.0707 80.3628L61.4903 80.9721L61.6183 80.669L60.1988 80.0597Z" fill="#9C182F"/>
<path d="M62.9273 82.7883L62.605 82.8433L62.9767 85.0566L63.2989 85.0016L62.9273 82.7883Z" fill="#9C182F"/>
<path d="M61.6581 82.1702L59.2032 82.6538L59.2659 82.9771L61.7208 82.4935L61.6581 82.1702Z" fill="#9C182F"/>
<path d="M65.0853 80.6531L63.8484 80.9038L63.9128 81.2268L65.1497 80.9761L65.0853 80.6531Z" fill="#9C182F"/>
<path d="M62.0244 78.8892L61.7087 78.9746L62.0497 80.2547L62.3653 80.1693L62.0244 78.8892Z" fill="#9C182F"/>
<path d="M59.4958 83.2014L59.3292 83.4849L62.5339 85.3992L62.7005 85.1158L59.4958 83.2014Z" fill="#9C182F"/>
<path d="M40.2744 82.8436C40.0691 82.8436 39.8639 82.7976 39.6662 82.7056C38.9591 82.3684 38.655 81.5177 38.9895 80.805C39.324 80.0923 40.1756 79.7857 40.8751 80.1229C41.2172 80.2839 41.4757 80.5751 41.6049 80.9353C41.7342 81.2955 41.7114 81.6863 41.5517 82.0312C41.316 82.537 40.8066 82.8436 40.2744 82.8436ZM40.282 80.3069C39.8715 80.3069 39.4761 80.5368 39.2936 80.9353C39.0351 81.4871 39.2708 82.1462 39.8106 82.4067C40.3581 82.6673 41.0119 82.4297 41.2704 81.8856C41.3921 81.6174 41.4073 81.3185 41.3084 81.0426C41.2096 80.7667 41.0119 80.5444 40.7458 80.4142C40.5937 80.3452 40.4341 80.3069 40.282 80.3069Z" fill="#9C182F"/>
<path d="M42.4013 79.986L41.2415 80.5596L41.3853 80.8554L42.5452 80.2817L42.4013 79.986Z" fill="#9C182F"/>
<path d="M39.0311 79.2572L38.768 79.4526L39.4891 80.4396L39.7521 80.2442L39.0311 79.2572Z" fill="#9C182F"/>
<path d="M39.1188 81.9877L37.964 83.019L38.1806 83.2657L39.3354 82.2344L39.1188 81.9877Z" fill="#9C182F"/>
<path d="M41.5743 81.6941L41.4857 82.0112L43.6297 82.6205L43.7184 82.3034L41.5743 81.6941Z" fill="#9C182F"/>
<path d="M40.4816 82.5824L39.865 85.0259L40.1817 85.1071L40.7983 82.6637L40.4816 82.5824Z" fill="#9C182F"/>
<path d="M40.5885 78.8138L40.2837 80.0479L40.6008 80.1275L40.9056 78.8935L40.5885 78.8138Z" fill="#9C182F"/>
<path d="M37.6983 80.8551L37.6397 81.1792L38.9332 81.4167L38.9918 81.0926L37.6983 80.8551Z" fill="#9C182F"/>
<path d="M43.5745 82.8971L40.4853 84.9951L40.6678 85.2684L43.757 83.1704L43.5745 82.8971Z" fill="#9C182F"/>
<path d="M29.2121 102.502C29.1284 102.502 29.0372 102.494 28.9459 102.479C28.5734 102.41 28.2541 102.195 28.0336 101.881C27.8207 101.567 27.7371 101.183 27.8131 100.808C27.8815 100.432 28.0944 100.11 28.4061 99.8882C28.7179 99.6736 29.098 99.5893 29.4706 99.666C29.8431 99.735 30.1624 99.9495 30.3829 100.264C30.5958 100.578 30.6794 100.961 30.6034 101.337C30.535 101.712 30.3221 102.034 30.0104 102.256C29.7747 102.41 29.4934 102.502 29.2121 102.502ZM29.2044 99.9649C28.984 99.9649 28.7711 100.034 28.5886 100.156C28.3453 100.325 28.1856 100.57 28.1324 100.862C28.0792 101.153 28.14 101.444 28.3073 101.689C28.4746 101.934 28.7179 102.095 29.0068 102.149C29.2957 102.203 29.5846 102.141 29.8279 101.973C30.0712 101.804 30.2309 101.559 30.2841 101.268C30.3373 100.976 30.2765 100.685 30.1092 100.44C29.9419 100.195 29.6986 100.034 29.4097 99.9802C29.3413 99.9725 29.2729 99.9649 29.2044 99.9649Z" fill="#9C182F"/>
<path d="M29.0592 98.4949L28.9662 99.7939L29.2921 99.8177L29.3851 98.5186L29.0592 98.4949Z" fill="#9C182F"/>
<path d="M27.9433 100.941L26.7342 101.072L26.7689 101.399L27.978 101.269L27.9433 100.941Z" fill="#9C182F"/>
<path d="M29.4449 102.303L29.1245 102.368L29.4279 103.893L29.7483 103.828L29.4449 102.303Z" fill="#9C182F"/>
<path d="M31.706 98.529L30.1052 100.089L30.3323 100.326L31.9331 98.7659L31.706 98.529Z" fill="#9C182F"/>
<path d="M30.5474 101.25L30.3182 101.485L32.1008 103.253L32.33 103.018L30.5474 101.25Z" fill="#9C182F"/>
<path d="M27.3643 99.2557L27.1363 99.4917L28.04 100.379L28.268 100.143L27.3643 99.2557Z" fill="#9C182F"/>
<path d="M28.2874 102.027L27.4315 103.033L27.6795 103.248L28.5354 102.242L28.2874 102.027Z" fill="#9C182F"/>
<path d="M32.4641 98.9208L32.1381 98.9424L32.3824 102.689L32.7085 102.668L32.4641 98.9208Z" fill="#9C182F"/>
<path d="M40.0083 122.366C39.6205 122.366 39.2708 122.213 39.0047 121.945C38.7386 121.677 38.5941 121.316 38.5941 120.933C38.5941 120.144 39.2328 119.508 40.0083 119.508H40.0159C40.396 119.508 40.7534 119.661 41.0195 119.929C41.2856 120.198 41.43 120.558 41.43 120.941C41.43 121.324 41.278 121.684 41.0119 121.953C40.7382 122.221 40.3884 122.366 40.0083 122.366ZM38.7538 120.933H38.9134C38.9134 121.225 39.0275 121.508 39.2328 121.715C39.438 121.922 39.7118 122.037 40.0083 122.045C40.0083 122.045 40.0083 122.045 40.0159 122.045C40.3048 122.045 40.5785 121.93 40.7838 121.723C40.9891 121.516 41.1031 121.24 41.1107 120.941C41.1107 120.65 40.9967 120.366 40.7914 120.159C40.5861 119.952 40.3124 119.837 40.0159 119.83C40.0159 119.83 40.0159 119.83 40.0083 119.83C39.4076 119.83 38.9134 120.32 38.9134 120.926L38.7538 120.933Z" fill="#9C182F"/>
<path d="M38.0298 119.345L37.825 119.602L38.832 120.418L39.0368 120.161L38.0298 119.345Z" fill="#9C182F"/>
<path d="M39.1863 121.92L38.6055 122.997L38.8925 123.154L39.4734 122.077L39.1863 121.92Z" fill="#9C182F"/>
<path d="M41.1408 121.447L41.0114 121.75L42.4282 122.365L42.5575 122.063L41.1408 121.447Z" fill="#9C182F"/>
<path d="M39.6822 117.362L39.3597 117.416L39.7218 119.631L40.0443 119.577L39.6822 117.362Z" fill="#9C182F"/>
<path d="M43.3721 119.466L40.9148 119.938L40.9759 120.261L43.4332 119.79L43.3721 119.466Z" fill="#9C182F"/>
<path d="M38.7157 121.197L37.4775 121.441L37.5402 121.765L38.7784 121.521L38.7157 121.197Z" fill="#9C182F"/>
<path d="M40.5796 122.164L40.2636 122.248L40.5986 123.529L40.9146 123.445L40.5796 122.164Z" fill="#9C182F"/>
<path d="M40.1051 117.02L39.9373 117.303L43.1334 119.231L43.3012 118.949L40.1051 117.02Z" fill="#9C182F"/>
<path d="M62.5055 121.984C62.247 121.984 61.9961 121.915 61.7756 121.777C61.4487 121.577 61.2206 121.263 61.1293 120.895C61.0381 120.527 61.0989 120.144 61.289 119.815C61.692 119.14 62.5663 118.926 63.2354 119.332C63.5623 119.531 63.7904 119.845 63.8816 120.213C63.9729 120.581 63.912 120.964 63.722 121.294C63.5243 121.623 63.2126 121.853 62.8476 121.945C62.7412 121.968 62.6195 121.984 62.5055 121.984ZM62.5131 119.447C62.1405 119.447 61.7832 119.638 61.5779 119.976C61.4259 120.228 61.3802 120.527 61.4487 120.811C61.5171 121.095 61.692 121.34 61.9429 121.493C62.1938 121.646 62.4827 121.692 62.7716 121.623C63.0529 121.554 63.2962 121.378 63.4482 121.125C63.6003 120.872 63.6459 120.573 63.5775 120.29C63.5091 120.006 63.3342 119.761 63.0833 119.608C62.9008 119.5 62.7032 119.447 62.5131 119.447Z" fill="#9C182F"/>
<path d="M61.3557 121.001L60.1434 121.451L60.2564 121.76L61.4687 121.31L61.3557 121.001Z" fill="#9C182F"/>
<path d="M63.202 121.61L62.9207 121.777L63.5391 122.833L63.8205 122.665L63.202 121.61Z" fill="#9C182F"/>
<path d="M64.7847 118.925L63.5323 119.833L63.7232 120.101L64.9755 119.193L64.7847 118.925Z" fill="#9C182F"/>
<path d="M59.2989 119.006L59.1788 119.312L61.25 120.137L61.37 119.831L59.2989 119.006Z" fill="#9C182F"/>
<path d="M62.988 116.893L62.1271 119.26L62.4339 119.373L63.2948 117.007L62.988 116.893Z" fill="#9C182F"/>
<path d="M62.0707 121.804L61.6428 123L61.9502 123.112L62.3781 121.916L62.0707 121.804Z" fill="#9C182F"/>
<path d="M63.8465 120.686L63.7557 121.002L65.0187 121.371L65.1095 121.054L63.8465 120.686Z" fill="#9C182F"/>
<path d="M62.5129 116.676L59.2298 118.451L59.3842 118.741L62.6672 116.967L62.5129 116.676Z" fill="#9C182F"/>
<path d="M74.062 102.594C73.5754 102.594 73.0965 102.341 72.8304 101.881C72.4426 101.199 72.6707 100.326 73.3474 99.927C74.024 99.5362 74.8908 99.7661 75.2861 100.448C75.4762 100.778 75.5294 101.161 75.4306 101.529C75.3317 101.897 75.096 102.203 74.7691 102.395C74.5486 102.533 74.3053 102.594 74.062 102.594ZM74.062 100.065C73.8796 100.065 73.6895 100.111 73.5146 100.211C72.99 100.517 72.8151 101.192 73.1117 101.72C73.2561 101.973 73.4918 102.157 73.7731 102.234C74.0544 102.31 74.351 102.272 74.6019 102.127C75.1265 101.82 75.3013 101.146 75.0048 100.617C74.8071 100.257 74.4422 100.065 74.062 100.065Z" fill="#9C182F"/>
<path d="M73.8932 102.408L73.7006 103.696L74.0238 103.745L74.2163 102.457L73.8932 102.408Z" fill="#9C182F"/>
<path d="M76.525 101.027L75.3096 101.065L75.3197 101.394L76.5351 101.356L76.525 101.027Z" fill="#9C182F"/>
<path d="M74.0653 98.334L73.741 98.374L73.9283 99.9178L74.2526 99.8778L74.0653 98.334Z" fill="#9C182F"/>
<path d="M71.378 103.505L71.1729 103.26L72.8905 101.828L73.0957 102.073L71.378 103.505Z" fill="#9C182F"/>
<path d="M71.3546 98.761L71.1083 98.9775L72.7515 100.878L72.9978 100.661L71.3546 98.761Z" fill="#9C182F"/>
<path d="M75.1786 101.934L74.9333 102.152L75.767 103.106L76.0122 102.889L75.1786 101.934Z" fill="#9C182F"/>
<path d="M75.7532 99.1093L74.8248 100.048L75.0562 100.281L75.9845 99.342L75.7532 99.1093Z" fill="#9C182F"/>
<path d="M71.0836 99.3066L71.0452 103.062L71.372 103.065L71.4104 99.31L71.0836 99.3066Z" fill="#9C182F"/>
<path d="M64.749 88.1859L64.4888 88.3853L66.1907 90.6417L66.4508 90.4423L64.749 88.1859Z" fill="#9C182F"/>
<path d="M68.5548 93.8981L68.3134 94.1201L70.1728 96.1745L70.4142 95.9524L68.5548 93.8981Z" fill="#9C182F"/>
<path d="M52.9265 81.9665L52.8947 82.2944L55.9292 82.5932L55.9609 82.2653L52.9265 81.9665Z" fill="#9C182F"/>
<path d="M45.9942 82.1214L45.9432 82.4468L48.8869 82.9158L48.9379 82.5904L45.9942 82.1214Z" fill="#9C182F"/>
<path d="M38.0999 86.6534L36.9528 90.0322L37.262 90.139L38.4091 86.7601L38.0999 86.6534Z" fill="#9C182F"/>
<path d="M35.0459 93.0935L33.2498 96.1982L33.532 96.3643L35.3281 93.2595L35.0459 93.0935Z" fill="#9C182F"/>
<path d="M33.794 105.834L33.4871 105.947L34.5391 108.847L34.8461 108.734L33.794 105.834Z" fill="#9C182F"/>
<path d="M37.0498 111.495L36.7367 111.589L37.7263 114.93L38.0395 114.836L37.0498 111.495Z" fill="#9C182F"/>
<path d="M49.2583 118.753L46.1938 119.285L46.2492 119.61L49.3137 119.078L49.2583 118.753Z" fill="#9C182F"/>
<path d="M56.0844 119.012L52.7385 119.402L52.776 119.729L56.1219 119.339L56.0844 119.012Z" fill="#9C182F"/>
<path d="M66.572 111.506L64.405 114.223L64.6596 114.429L66.8266 111.713L66.572 111.506Z" fill="#9C182F"/>
<path d="M70.1726 105.68L67.4556 108.467L67.6886 108.698L70.4056 105.911L70.1726 105.68Z" fill="#9C182F"/>
<path d="M78.1981 100.854C78.1981 100.785 78.1829 100.716 78.1753 100.647C78.1677 100.578 78.1601 100.517 78.1525 100.448C78.1449 100.41 78.1373 100.379 78.1297 100.341C78.1145 100.241 78.0917 100.149 78.0688 100.05V100.042C77.7115 98.67 76.6547 97.5205 75.2025 97.1449C74.2141 96.8844 73.1801 97.0146 72.283 97.5051L69.1962 99.2218C69.181 99.0456 69.1505 98.8693 69.1277 98.693L71.9028 97.0989L72.0625 96.984C73.0281 96.1103 73.3702 94.7538 72.9216 93.5276C72.3286 91.8799 70.5115 91.0292 68.8844 91.627C68.2382 91.8646 67.706 92.3091 67.3334 92.8838C67.2194 92.6616 67.1053 92.447 66.9837 92.2324L68.413 91.3817L68.4815 91.3358C69.9184 90.2858 70.253 88.2549 69.2114 86.8064C68.1698 85.358 66.155 85.0208 64.718 86.0707L63.2278 87.5958C63.129 87.5115 63.0301 87.4272 62.9313 87.3429L65.676 84.2237C66.0485 83.8022 66.3222 83.3194 66.4971 82.8059H66.5047C66.5731 82.5913 66.6187 82.3768 66.6492 82.1622C66.6568 82.1392 66.6568 82.1085 66.6644 82.0855C66.672 82.0012 66.6796 81.9169 66.6872 81.8326C66.6948 81.779 66.6948 81.7177 66.6948 81.664C66.6948 81.6104 66.6948 81.5567 66.6948 81.5107C66.6948 81.4494 66.6948 81.3805 66.6948 81.3191C66.6948 81.2885 66.6872 81.2578 66.6872 81.2272C66.6872 81.2195 66.6872 81.2195 66.6872 81.2119C66.6035 80.1772 66.1474 79.2193 65.3718 78.5219C64.5735 77.8015 63.5471 77.4413 62.4827 77.4949C61.4107 77.5562 60.4299 78.0237 59.7152 78.8284L59.7304 78.8437C59.3579 79.2576 59.069 79.7481 58.8865 80.2999L57.5864 84.2467C57.4876 84.2084 57.3811 84.1777 57.2823 84.1394L57.8449 82.2465L57.8753 82.0702C57.9589 81.2042 57.708 80.3612 57.1682 79.6868C56.6208 79.0123 55.8529 78.5985 54.9938 78.5065C53.2223 78.3226 51.6409 79.6254 51.466 81.4111L51.428 83.1815C51.1543 83.1815 50.8806 83.1891 50.6069 83.2044C50.949 82.576 51.0782 81.8556 50.949 81.1429C50.6449 79.4185 49.0026 78.2613 47.2996 78.5678C46.0223 78.7977 45.0263 79.7711 44.7602 81.0509L44.7373 84.4766C44.5701 84.5456 44.4028 84.6146 44.2356 84.6912L44.1671 81.1735C44.1367 80.1466 43.7338 79.1809 43.0191 78.4529C41.9623 77.3723 40.4493 77.0197 39.0959 77.3953C39.0883 77.3953 39.0883 77.3953 39.0807 77.4029C38.9895 77.4259 38.9059 77.4566 38.8222 77.4872C38.7842 77.5026 38.7462 77.5102 38.7082 77.5256C38.6474 77.5485 38.5941 77.5792 38.5409 77.6022C38.4725 77.6328 38.4041 77.6635 38.3432 77.6942C38.3204 77.7018 38.3052 77.7172 38.2824 77.7248C37.6134 78.0773 37.0583 78.6138 36.6782 79.2959C36.1536 80.2309 36.0167 81.3268 36.298 82.3614C36.5717 83.3501 37.1952 84.1931 38.0695 84.7295L41.0271 86.5305C40.8826 86.6378 40.7382 86.7451 40.5937 86.8601L37.8566 85.266L37.6818 85.1894C36.4501 84.7832 35.1196 85.1664 34.2832 86.1627C33.7434 86.8141 33.4849 87.6341 33.561 88.4848C33.637 89.3278 34.0323 90.0942 34.671 90.6383C35.2032 91.0905 35.8723 91.3358 36.5641 91.3664C36.4349 91.581 36.3056 91.8032 36.184 92.0255L34.7318 91.2055L34.6558 91.1671C33.8727 90.8146 32.9983 90.784 32.1924 91.0905C31.3865 91.3971 30.7479 92.0025 30.3981 92.7919C29.6682 94.4243 30.3905 96.3479 32.01 97.0836L34.2072 97.6277C34.1844 97.7427 34.1692 97.8653 34.1464 97.9803L29.8203 97.0683C29.1208 96.9227 28.4213 96.9687 27.7903 97.1679C27.7751 97.1679 27.7675 97.1756 27.7523 97.1832C27.6458 97.2216 27.5394 97.2599 27.4406 97.2982C27.3949 97.3212 27.3493 97.3442 27.3037 97.3595C27.2353 97.3902 27.1745 97.4208 27.106 97.4591C27.0376 97.4975 26.9768 97.5358 26.9159 97.5741C26.8703 97.6048 26.8247 97.6277 26.7867 97.6584C26.7183 97.7044 26.6575 97.7504 26.589 97.804C26.551 97.8347 26.513 97.8653 26.475 97.896C26.4218 97.942 26.3609 97.9956 26.3077 98.0416C26.2621 98.0799 26.2165 98.1259 26.1785 98.1642C26.1404 98.2025 26.0948 98.2485 26.0568 98.2945C26.0036 98.3481 25.9504 98.4095 25.9048 98.4708C25.8743 98.5014 25.8515 98.5397 25.8287 98.5704C25.7755 98.647 25.7147 98.716 25.6691 98.7926C25.6615 98.8003 25.6539 98.808 25.6463 98.8233C25.631 98.8463 25.6234 98.8693 25.6082 98.8923C25.5626 98.9689 25.5094 99.0532 25.4714 99.1375C25.4486 99.1835 25.4258 99.2295 25.403 99.2678C25.3725 99.3368 25.3345 99.4058 25.3041 99.4824C25.2737 99.5514 25.2509 99.6203 25.2281 99.6893C25.2129 99.743 25.1901 99.7889 25.1749 99.8426C25.1445 99.9346 25.1216 100.034 25.0988 100.126C25.0912 100.149 25.0836 100.172 25.076 100.203C25.076 100.21 25.076 100.218 25.076 100.226C25.0532 100.333 25.038 100.44 25.0228 100.548C25.0228 100.578 25.0152 100.601 25.0152 100.632C25.0152 100.709 25.0076 100.808 25.0076 100.908C25.0076 100.946 25 100.984 25 101.015C25 101.099 25.0076 101.184 25.0076 101.268C25.0076 101.322 25.0152 101.368 25.0152 101.421C25.0228 101.498 25.038 101.567 25.0456 101.644C25.0532 101.697 25.0608 101.759 25.076 101.812C25.076 101.828 25.076 101.843 25.0836 101.851C25.0988 101.927 25.1216 101.996 25.1445 102.073C25.1521 102.111 25.1597 102.149 25.1749 102.18C25.3954 102.923 25.8211 103.583 26.4066 104.081C26.4142 104.088 26.4142 104.088 26.4218 104.096C26.5054 104.165 26.5966 104.234 26.6803 104.303C26.7031 104.318 26.7183 104.334 26.7411 104.349C26.7639 104.364 26.7943 104.387 26.8171 104.403C26.8779 104.441 26.9388 104.472 26.9996 104.51C27.0224 104.525 27.0452 104.541 27.0756 104.556C27.1745 104.609 27.2809 104.663 27.3797 104.709C27.3949 104.717 27.4025 104.724 27.4177 104.724C28.1704 105.054 29.0144 105.146 29.8355 104.97L34.1768 104.035C34.192 104.111 34.1996 104.18 34.2148 104.257L31.9871 104.77L31.8199 104.824C31.0368 105.177 30.4361 105.82 30.132 106.633C29.8279 107.445 29.8507 108.326 30.208 109.116C30.9379 110.748 32.8463 111.476 34.4657 110.741L36.2296 109.783C36.3132 109.936 36.4045 110.089 36.4957 110.242C35.7278 110.219 34.9827 110.48 34.3973 110.978C33.751 111.522 33.3557 112.289 33.2873 113.132C33.2188 113.975 33.4697 114.802 34.0095 115.454C34.8459 116.458 36.1764 116.841 37.4081 116.427L40.6698 114.986C40.8218 115.109 40.9739 115.232 41.1335 115.346L37.9555 117.278C37.0887 117.814 36.4577 118.657 36.1916 119.646C35.9103 120.688 36.0395 121.776 36.5717 122.711C36.8911 123.286 37.3396 123.754 37.8719 124.106C37.9555 124.16 38.0467 124.214 38.138 124.26C38.1684 124.275 38.1988 124.29 38.2216 124.305C38.2824 124.336 38.3432 124.359 38.4041 124.39C38.4649 124.42 38.5257 124.451 38.5941 124.474C38.6322 124.489 38.6702 124.505 38.7158 124.512C38.7994 124.543 38.8907 124.574 38.9743 124.597C38.9819 124.597 38.9895 124.604 38.9971 124.604C39.3468 124.704 39.7042 124.75 40.0691 124.75C41.1031 124.75 42.1447 124.351 42.9202 123.547C43.6349 122.819 44.0455 121.845 44.0683 120.818L44.1367 117.14C44.3192 117.224 44.4941 117.308 44.6841 117.385L45.0567 120.788L45.0719 120.872C45.338 122.152 46.334 123.125 47.6113 123.355C49.322 123.662 50.9642 122.504 51.2607 120.78C51.3824 120.098 51.2607 119.408 50.9566 118.795C51.0934 118.803 51.2303 118.803 51.3748 118.803L51.4204 120.52L51.428 120.589C51.5116 121.455 51.9298 122.229 52.5988 122.78C53.2679 123.332 54.1042 123.585 54.9558 123.493C55.8149 123.409 56.5828 122.987 57.1302 122.313C57.6776 121.638 57.9285 120.795 57.8373 119.929L57.2138 117.883C57.3051 117.853 57.4039 117.822 57.4952 117.791L58.7877 121.7C58.9853 122.305 59.3123 122.834 59.738 123.279C59.7532 123.302 59.7761 123.317 59.7913 123.332C59.8065 123.348 59.8141 123.355 59.8293 123.371C60.5364 124.114 61.4791 124.558 62.5055 124.612C62.5816 124.62 62.65 124.62 62.726 124.62C63.7144 124.62 64.6572 124.26 65.3947 123.585C66.193 122.865 66.6644 121.876 66.7176 120.795C66.7784 119.715 66.4135 118.68 65.6988 117.883L62.8933 114.695C62.9617 114.641 63.0225 114.58 63.091 114.526L64.5279 116.059L64.6572 116.174C66.1017 117.224 68.1165 116.887 69.1505 115.438C70.1921 113.982 69.8576 111.951 68.4206 110.909L66.8848 109.959C66.9533 109.836 67.0293 109.714 67.0977 109.583C67.4703 110.166 68.0101 110.618 68.6639 110.863C70.2986 111.461 72.1081 110.61 72.7011 108.963C73.1421 107.736 72.8076 106.38 71.842 105.506L69.1049 103.491C69.1353 103.291 69.1581 103.084 69.1809 102.877L72.283 104.609C73.1801 105.1 74.2141 105.223 75.2025 104.97C76.2365 104.701 77.1109 104.035 77.6507 103.107C78.0384 102.441 78.2209 101.69 78.1981 100.931C78.1981 100.908 78.1981 100.885 78.1981 100.854ZM38.0771 81.8709C37.9251 81.3038 37.9935 80.7137 38.2824 80.2079C38.3965 80.001 38.5485 79.8247 38.7234 79.6714C38.7918 79.6101 38.8602 79.5565 38.9363 79.5028C38.9895 79.4645 39.0427 79.4338 39.0959 79.4032C39.1568 79.3649 39.2252 79.3342 39.286 79.3036C39.3544 79.2729 39.4305 79.2422 39.5065 79.2193C40.2668 78.9664 41.1335 79.1426 41.7266 79.7557C42.1143 80.1542 42.3348 80.6754 42.35 81.2272L42.4184 84.9518C42.4108 85.0514 42.426 85.1434 42.4336 85.2354C42.3576 85.1817 42.2816 85.1281 42.1903 85.0821L39.0351 83.1585C38.5637 82.8596 38.2216 82.4074 38.0771 81.8709ZM42.2968 117.071L42.2284 120.788C42.2132 121.347 41.9927 121.868 41.6049 122.267C41.0043 122.88 40.1375 123.049 39.3772 122.803C39.3012 122.78 39.2328 122.75 39.1644 122.719C39.0959 122.688 39.0351 122.658 38.9667 122.619C38.9135 122.589 38.8602 122.558 38.8146 122.52C38.7386 122.466 38.6702 122.413 38.6017 122.351C38.4345 122.198 38.2824 122.022 38.1608 121.815C37.8719 121.309 37.8034 120.719 37.9555 120.152C38.0999 119.615 38.4421 119.163 38.9059 118.872L42.0687 116.948C42.1523 116.902 42.236 116.849 42.312 116.795C42.2968 116.879 42.2892 116.971 42.2968 117.071ZM51.6028 117.232C42.7302 117.232 35.5073 109.951 35.5073 101.007C35.5073 90.4697 43.8022 84.7832 51.6028 84.7832C60.4755 84.7832 67.6984 92.0638 67.6984 101.007C67.6984 109.951 60.4755 117.232 51.6028 117.232ZM68.7628 94.0641L68.7932 94.0104C68.9453 93.7115 69.2038 93.4816 69.5155 93.3667C70.1997 93.1138 70.9524 93.474 71.2033 94.1637C71.3782 94.6465 71.2642 95.183 70.9068 95.5509L68.778 96.7694C68.6259 96.1486 68.4511 95.5432 68.2382 94.9531L68.7628 94.0641ZM65.8508 87.5345C66.1398 87.3429 66.4819 87.2739 66.824 87.3276C67.189 87.3889 67.5083 87.5881 67.7288 87.887C68.1698 88.5001 68.0405 89.3585 67.4475 89.8183L66.0029 90.6767C65.5543 90.0482 65.0677 89.4428 64.5431 88.8757L65.8508 87.5345ZM60.6352 80.867C60.8177 80.3075 61.1978 79.8554 61.7148 79.5948C62.2318 79.3342 62.8249 79.2882 63.3723 79.4645C64.2238 79.7481 64.7864 80.5068 64.8624 81.3575V81.3651C64.8701 81.4418 64.8624 81.5261 64.8624 81.6027C64.8624 81.6793 64.8625 81.7483 64.8549 81.825C64.8549 81.8403 64.8472 81.8633 64.8396 81.8786C64.7712 82.2848 64.5963 82.668 64.315 82.9822L61.4639 86.2163C60.772 85.7412 60.0422 85.3197 59.2819 84.9518L60.6352 80.867ZM54.8189 80.3535C55.1839 80.3918 55.5184 80.5681 55.7541 80.8593C55.9746 81.1275 56.081 81.4648 56.0658 81.8096L55.526 83.6336C54.7885 83.465 54.0434 83.3424 53.2755 83.2658L53.3059 81.572C53.3972 80.821 54.0738 80.2845 54.8189 80.3535ZM46.5849 81.3498C46.7217 80.8517 47.1171 80.4838 47.6265 80.3918C48.3412 80.2615 49.0254 80.7444 49.1547 81.4648C49.2155 81.7943 49.1471 82.1392 48.9646 82.4151L48.3944 83.4497C47.7785 83.557 47.1703 83.6873 46.5773 83.8559L46.5849 81.3498ZM36.8074 89.5271H36.777C36.4501 89.5424 36.1156 89.4351 35.8647 89.2205C35.5986 88.9906 35.4313 88.6764 35.4009 88.3162C35.3705 87.9637 35.4769 87.6188 35.705 87.3506C36.0319 86.952 36.5565 86.7911 37.0431 86.9214L39.1416 88.1476C38.6854 88.5921 38.2596 89.0596 37.8566 89.5577L36.8074 89.5271ZM32.7094 95.3593C32.0632 95.0221 31.7743 94.225 32.0784 93.5429C32.2304 93.2057 32.5041 92.9452 32.8539 92.8072C33.1884 92.6769 33.5534 92.6846 33.8803 92.8225L35.3781 93.6732C35.0816 94.363 34.8307 95.0834 34.6254 95.8267L32.7094 95.3593ZM29.4553 103.161C29.1512 103.23 28.8395 103.215 28.543 103.153C28.4137 103.123 28.2845 103.084 28.1628 103.031C28.1248 103.015 28.0868 102.992 28.0564 102.977C27.9652 102.931 27.8815 102.893 27.7979 102.831C27.7523 102.801 27.7143 102.763 27.6762 102.732C27.6002 102.678 27.5318 102.617 27.4634 102.556C27.4406 102.533 27.4254 102.51 27.4025 102.487C27.3265 102.402 27.2581 102.318 27.1897 102.218C27.1745 102.188 27.1592 102.157 27.144 102.134C27.0908 102.042 27.0376 101.95 26.9996 101.851C26.9692 101.782 26.954 101.713 26.9312 101.644C26.9083 101.582 26.8855 101.513 26.8779 101.452C26.8627 101.368 26.8551 101.283 26.8475 101.199C26.8399 101.138 26.8323 101.076 26.8323 101.015C26.8323 100.946 26.8399 100.885 26.8475 100.824C26.8551 100.747 26.8551 100.663 26.8703 100.586C26.8855 100.525 26.9083 100.471 26.9236 100.41C26.9464 100.333 26.9692 100.249 26.9996 100.18C27.03 100.103 27.0756 100.027 27.1212 99.9499C27.1516 99.9039 27.1745 99.8503 27.2049 99.8043C27.2505 99.7353 27.3113 99.674 27.3645 99.605C27.4025 99.559 27.4406 99.513 27.4786 99.4671C27.5242 99.4211 27.5774 99.3828 27.6306 99.3368C27.6915 99.2908 27.7447 99.2371 27.8055 99.1912C27.8587 99.1528 27.9195 99.1299 27.9728 99.0992C28.0412 99.0609 28.102 99.0226 28.1704 98.9919C28.2541 98.9536 28.3453 98.9306 28.4365 98.9076C28.7559 98.8156 29.1056 98.7926 29.4477 98.8693L33.9487 99.8196C33.9259 100.21 33.9107 100.601 33.9107 101C33.9107 101.398 33.9259 101.789 33.9563 102.18L29.4553 103.161ZM33.6826 109.07C32.9907 109.369 32.1848 109.054 31.8807 108.357C31.7286 108.02 31.721 107.637 31.8503 107.292C31.9719 106.97 32.2 106.709 32.5041 106.548L34.6482 106.05C34.8611 106.763 35.112 107.46 35.4009 108.135L33.6826 109.07ZM36.7922 114.687C36.2904 114.841 35.7506 114.68 35.4085 114.266C35.1804 113.998 35.074 113.653 35.1044 113.3C35.1348 112.948 35.302 112.626 35.5681 112.396C35.8266 112.181 36.1536 112.074 36.4881 112.089L37.811 112.151C38.2292 112.672 38.6702 113.178 39.1416 113.645L36.7922 114.687ZM49.2535 119.516C49.436 119.799 49.5044 120.136 49.4436 120.466C49.3143 121.186 48.6377 121.669 47.9154 121.539C47.3908 121.447 46.9878 121.056 46.8662 120.543L46.5925 118.09C47.2615 118.289 47.9534 118.45 48.6529 118.573L49.2535 119.516ZM56.005 120.221C56.0354 120.956 55.4956 121.593 54.7581 121.669C54.3931 121.707 54.0282 121.6 53.7393 121.363C53.458 121.133 53.2831 120.811 53.2375 120.451L53.1919 118.749C53.9598 118.68 54.7049 118.558 55.4424 118.397L56.005 120.221ZM64.3226 119.132C64.4899 119.324 64.6116 119.539 64.7104 119.761L64.6496 119.784C65.0221 120.933 64.3987 122.167 63.2582 122.543C62.1178 122.918 60.8937 122.29 60.5135 121.14L59.183 117.109C59.9585 116.734 60.7036 116.312 61.4107 115.829L64.3226 119.132ZM67.3638 112.442C67.9645 112.894 68.0937 113.76 67.6527 114.373C67.2194 114.979 66.3983 115.132 65.7824 114.733L64.4139 113.277C64.9385 112.725 65.4251 112.135 65.8736 111.522L67.3638 112.442ZM70.6331 106.924C71.0133 107.292 71.1425 107.844 70.9676 108.342C70.7167 109.032 69.9641 109.384 69.2798 109.139C68.9681 109.024 68.7096 108.794 68.5499 108.487L68.0557 107.522C68.3142 106.863 68.5347 106.188 68.7172 105.498L70.6331 106.924ZM76.3506 101.253C76.343 101.345 76.3278 101.429 76.3126 101.521C76.2669 101.751 76.1909 101.965 76.0693 102.172C75.7727 102.678 75.3013 103.038 74.7463 103.184C74.2141 103.322 73.6515 103.253 73.1725 102.992L69.9412 101.191C69.8576 101.138 69.774 101.099 69.6903 101.061C69.774 101.023 69.8652 100.977 69.9412 100.931L73.1725 99.1375C73.6591 98.8693 74.2217 98.808 74.7539 98.9459C75.5827 99.1605 76.1605 99.8349 76.3278 100.624C76.343 100.701 76.3582 100.778 76.3658 100.854C76.3734 100.931 76.3734 101 76.3734 101.076C76.3582 101.122 76.3582 101.184 76.3506 101.253Z" fill="#9C182F"/>
<path d="M45.855 112.051L44.4637 112.533C44.2736 112.602 44.1824 112.733 44.1824 112.924C44.1824 113.2 44.2888 113.346 44.5245 113.369H58.59C58.8561 113.369 59.0006 113.223 59.0234 112.917C59.0234 112.802 58.955 112.687 58.8181 112.595L57.2215 112.035V104.341C57.2215 103.981 57.2823 103.659 57.3964 103.383C57.4648 103.115 57.556 102.954 57.6777 102.892V102.494C56.2863 102.494 54.9178 102.088 53.5797 101.268C52.2567 100.516 51.0631 99.4895 50.0063 98.202L50.9566 96.3244C51.1999 96.8608 51.6789 97.4739 52.4164 98.156C52.7966 98.4779 53.1995 98.7385 53.6253 98.9301C54.051 99.183 54.4844 99.3056 54.9254 99.3056C56.0278 99.2826 56.8642 98.7155 57.4268 97.6119C57.9666 96.5313 58.2403 95.3817 58.2403 94.1708C58.1643 90.4616 56.1267 88.6222 52.1123 88.6452C50.356 88.6682 48.8886 89.1817 47.7102 90.201C46.5013 91.2126 45.8778 92.4848 45.855 94.0099V112.051ZM50.0063 96.47V94.0022C49.9834 93.1056 50.0975 92.2242 50.3484 91.3352C50.6221 90.4769 51.1923 90.0324 52.0743 89.9787C52.9866 90.0324 53.6557 90.5075 54.0815 91.4195C54.5148 92.3009 54.7277 93.1592 54.7277 94.0022C54.7277 94.692 54.6441 95.4047 54.4844 96.1558C54.3856 96.4853 54.2411 96.7689 54.051 96.9988C53.8838 97.267 53.6329 97.3973 53.2984 97.3973C52.8954 97.3743 52.4696 97.0678 52.0134 96.4777C51.5725 95.9105 51.2532 95.3817 51.0555 94.8912H50.987L50.0063 96.47ZM53.0703 112.434H50.0063V99.5202C50.9642 100.585 51.9906 101.436 53.0703 102.08V112.434Z" fill="#008996"/>
<path d="M96.2398 89.209C95.846 89.4145 94.9828 89.7037 93.8848 89.7037C91.4086 89.7037 89.7957 87.999 89.7957 85.4799C89.7957 82.9379 91.5298 81.0962 94.2028 81.0962C95.0812 81.0962 95.8687 81.3169 96.2701 81.5224L95.9293 82.6792C95.5734 82.4737 95.0131 82.2834 94.2028 82.2834C92.3173 82.2834 91.3026 83.6838 91.3026 85.4038C91.3026 87.314 92.5218 88.486 94.1498 88.486C94.9979 88.486 95.5583 88.2653 95.9823 88.0751L96.2398 89.209Z" fill="#18212E"/>
<path d="M98.9356 81.2637V84.7417C98.9356 86.0507 98.9204 86.8727 98.8523 88.0447H98.9053C99.3975 87.0553 99.6852 86.4769 100.23 85.5256L102.79 81.2637H104.539V89.5135H103.108V86.0203C103.108 84.6732 103.138 83.973 103.206 82.6412H103.153C102.631 83.6991 102.267 84.3612 101.798 85.1983C101.018 86.4769 100.117 88.0599 99.2385 89.5135H97.5271V81.2637H98.9356Z" fill="#18212E"/>
<path d="M112.763 81.2635V89.5133H111.286V82.4583H108.469V84.5512C108.469 86.8724 108.249 88.4022 107.182 89.1023C106.773 89.4448 106.319 89.6275 105.554 89.6275L105.402 88.4326C105.69 88.4022 106.016 88.2652 106.22 88.0901C106.985 87.5422 107.068 86.3854 107.068 84.5436V81.2559H112.763V81.2635Z" fill="#18212E"/>
<path d="M120.547 87.5343C120.547 88.2497 120.577 88.9499 120.683 89.5131H119.328L119.207 88.4704H119.154C118.699 89.1173 117.813 89.6957 116.64 89.6957C114.974 89.6957 114.133 88.5237 114.133 87.3288C114.133 85.3349 115.898 84.2466 119.07 84.2618V84.0943C119.07 83.4094 118.881 82.1841 117.208 82.1841C116.443 82.1841 115.648 82.42 115.072 82.8006L114.732 81.8112C115.413 81.3698 116.397 81.0806 117.427 81.0806C119.941 81.0806 120.547 82.8006 120.547 84.4597V87.5343ZM119.101 85.3044C117.473 85.274 115.625 85.5632 115.625 87.1614C115.625 88.1355 116.269 88.5922 117.034 88.5922C118.101 88.5922 118.783 87.9072 119.017 87.2147C119.07 87.0625 119.101 86.895 119.101 86.7352V85.3044Z" fill="#18212E"/>
<path d="M89.6 96.5325C90.1755 96.4336 91.2432 96.3423 92.2124 96.3423C93.583 96.3423 95.8623 96.563 95.8623 98.4047C95.8623 99.4246 95.0824 100.056 94.151 100.262V100.292C95.355 100.46 96.2333 101.145 96.2333 102.339C96.2333 104.501 93.5224 104.775 91.9095 104.775C90.9933 104.775 90.0467 104.706 89.6 104.676V96.5325ZM91.0084 103.694C91.4325 103.747 91.7354 103.763 92.2124 103.763C93.212 103.763 94.7037 103.527 94.7037 102.332C94.7037 101.137 93.5149 100.886 92.0913 100.886H91.0084V103.694ZM91.0236 99.8964H92.1443C93.2498 99.8964 94.3857 99.5692 94.3857 98.6026C94.3857 97.7807 93.6739 97.3925 92.1821 97.3925C91.6899 97.3925 91.387 97.423 91.0311 97.461V99.8964H91.0236Z" fill="#18212E"/>
<path d="M105.116 100.49C105.116 103.542 103.011 104.874 101.027 104.874C98.808 104.874 97.0891 103.237 97.0891 100.627C97.0891 97.8642 98.8837 96.2432 101.163 96.2432C103.526 96.2432 105.116 97.9631 105.116 100.49ZM98.6035 100.574C98.6035 102.377 99.6409 103.747 101.095 103.747C102.518 103.747 103.586 102.4 103.586 100.543C103.586 99.1428 102.889 97.3695 101.125 97.3695C99.3683 97.3695 98.6035 99.0058 98.6035 100.574Z" fill="#18212E"/>
<path d="M112.802 96.4341V104.684H111.325V97.6289H108.508V99.7218C108.508 102.043 108.289 103.573 107.221 104.273C106.812 104.615 106.358 104.806 105.593 104.806L105.441 103.611C105.729 103.58 106.055 103.443 106.259 103.268C107.024 102.72 107.107 101.564 107.107 99.7218V96.4341H112.802Z" fill="#18212E"/>
<path d="M122.244 100.49C122.244 103.542 120.139 104.874 118.155 104.874C115.937 104.874 114.218 103.237 114.218 100.627C114.218 97.8642 116.012 96.2432 118.292 96.2432C120.654 96.2432 122.244 97.9631 122.244 100.49ZM115.732 100.574C115.732 102.377 116.77 103.747 118.223 103.747C119.647 103.747 120.715 102.4 120.715 100.543C120.715 99.1428 120.018 97.3695 118.254 97.3695C116.497 97.3695 115.732 99.0058 115.732 100.574Z" fill="#18212E"/>
<path d="M128.704 96.4341V97.6442H125.145V104.684H123.668V96.4341H128.704Z" fill="#18212E"/>
<path d="M136.897 100.49C136.897 103.542 134.792 104.874 132.808 104.874C130.589 104.874 128.87 103.237 128.87 100.627C128.87 97.8642 130.665 96.2432 132.944 96.2432C135.307 96.2432 136.897 97.9631 136.897 100.49ZM130.385 100.574C130.385 102.377 131.422 103.747 132.876 103.747C134.3 103.747 135.367 102.4 135.367 100.543C135.367 99.1428 134.671 97.3695 132.906 97.3695C131.149 97.3695 130.385 99.0058 130.385 100.574Z" fill="#18212E"/>
<path d="M144.598 96.4341V103.558L145.446 103.573L145.363 107.31H144.189L144.121 104.684H138.442L138.373 107.31H137.2L137.132 103.573L137.828 103.558C138.184 103.032 138.457 102.469 138.646 101.868C138.972 100.848 139.123 99.7371 139.123 98.5803V96.4341H144.598ZM140.441 98.9379C140.441 100.026 140.289 101.084 140.017 102.005C139.85 102.568 139.608 103.078 139.358 103.542H143.144V97.5757H140.448V98.9379H140.441Z" fill="#18212E"/>
<path d="M152.587 104.379C152.193 104.585 151.33 104.874 150.232 104.874C147.756 104.874 146.143 103.169 146.143 100.65C146.143 98.1084 147.869 96.2666 150.55 96.2666C151.428 96.2666 152.208 96.4873 152.617 96.6928L152.276 97.8496C151.92 97.6441 151.36 97.4615 150.55 97.4615C148.664 97.4615 147.65 98.8618 147.65 100.582C147.65 102.492 148.869 103.664 150.497 103.664C151.345 103.664 151.905 103.443 152.329 103.253L152.587 104.379Z" fill="#18212E"/>
<path d="M155.381 96.4341V100.011H155.737L158.826 96.4341H160.644L157.062 100.171C158.387 100.308 159.182 101.191 159.826 102.675C160.046 103.223 160.333 104.022 160.712 104.684H159.152C158.932 104.326 158.645 103.679 158.387 102.994C157.827 101.663 157.062 101.054 155.676 101.054H155.389V104.684H153.912V96.4341H155.381Z" fill="#18212E"/>
<path d="M162.984 96.4341V99.9121C162.984 101.229 162.968 102.043 162.9 103.223H162.953C163.445 102.233 163.733 101.655 164.278 100.704L166.838 96.4417H168.587V104.692H167.163V101.198C167.163 99.8512 167.194 99.151 167.262 97.8192H167.209C166.686 98.8771 166.323 99.5392 165.853 100.376C165.073 101.655 164.172 103.238 163.294 104.692H161.583V96.4341H162.984Z" fill="#18212E"/>
<path d="M171.275 96.4341L172.449 98.2073C172.752 98.664 173.009 99.0978 173.282 99.5544H173.335C173.608 99.0597 173.88 98.6335 174.153 98.1921L175.304 96.4341H176.917L174.115 100.422L177 104.684H175.296L174.092 102.827C173.767 102.347 173.502 101.891 173.214 101.396H173.184C172.911 101.906 172.623 102.332 172.32 102.827L171.131 104.684H169.488L172.404 100.475L169.625 96.4341H171.275Z" fill="#18212E"/>
<path d="M91.2903 111.604V114.93H95.19V111.604H96.6666V119.854H95.19V116.117H91.2903V119.854H89.8137V111.604H91.2903Z" fill="#18212E"/>
<path d="M99.5139 115.995C99.5442 118.027 100.839 118.857 102.331 118.857C103.398 118.857 104.042 118.667 104.602 118.431L104.86 119.504C104.337 119.74 103.436 120.029 102.126 120.029C99.5972 120.029 98.0903 118.339 98.0903 115.851C98.0903 113.362 99.5517 111.398 101.937 111.398C104.618 111.398 105.329 113.765 105.329 115.287C105.329 115.592 105.299 115.835 105.276 115.988H99.5139V115.995ZM103.891 114.922C103.906 113.971 103.497 112.487 101.823 112.487C100.317 112.487 99.6502 113.887 99.5366 114.922H103.891Z" fill="#18212E"/>
<path d="M113.167 111.604V118.727L114.015 118.743L113.932 122.479H112.758L112.69 119.854H107.01L106.942 122.479H105.769L105.7 118.743L106.397 118.727C106.753 118.202 107.026 117.639 107.215 117.038C107.541 116.018 107.692 114.907 107.692 113.75V111.604H113.167ZM109.01 114.108C109.01 115.196 108.858 116.254 108.586 117.175C108.419 117.738 108.177 118.248 107.927 118.712H111.713V112.746H109.017V114.108H109.01Z" fill="#18212E"/>
<path d="M115.37 114.29C115.37 113.232 115.34 112.38 115.302 111.596H116.642L116.711 113.012H116.741C117.354 112.007 118.316 111.406 119.656 111.406C121.64 111.406 123.132 113.095 123.132 115.599C123.132 118.567 121.337 120.029 119.399 120.029C118.316 120.029 117.362 119.549 116.87 118.735H116.839V123.217H115.363V114.29H115.37ZM116.847 116.49C116.847 116.71 116.877 116.916 116.915 117.106C117.188 118.149 118.089 118.864 119.157 118.864C120.732 118.864 121.648 117.57 121.648 115.675C121.648 114.024 120.785 112.608 119.202 112.608C118.187 112.608 117.233 113.339 116.945 114.465C116.892 114.655 116.847 114.876 116.847 115.082V116.49Z" fill="#18212E"/>
</g>
</svg>
