<svg width="160" height="50" viewBox="0 0 160 50" fill="none" xmlns="http://www.w3.org/2000/svg">
<path d="M39.6076 5.96128C38.7832 5.96128 38.119 5.28364 38.119 4.46079C38.119 3.63794 38.7913 2.96029 39.6076 2.96029C40.4319 2.96029 41.0962 3.63794 41.0962 4.46079C41.0962 5.28364 40.4239 5.96128 39.6076 5.96128ZM39.6076 3.29912C38.9753 3.29912 38.4551 3.82348 38.4551 4.46079C38.4551 5.09809 38.9753 5.62246 39.6076 5.62246C40.2398 5.62246 40.76 5.09809 40.76 4.46079C40.76 3.82348 40.2398 3.29912 39.6076 3.29912Z" fill="#9C182F"/>
<path d="M40.8479 4.99591L40.6335 5.26709L41.6971 6.12147L41.9114 5.8503L40.8479 4.99591Z" fill="#9C182F"/>
<path d="M40.7747 2.12103L40.1677 3.25698L40.4705 3.42154L41.0775 2.28558L40.7747 2.12103Z" fill="#9C182F"/>
<path d="M37.0514 2.95913L36.9166 3.2782L38.4108 3.91962L38.5456 3.60055L37.0514 2.95913Z" fill="#9C182F"/>
<path d="M39.9235 5.82948L39.5843 5.88736L39.9755 8.21718L40.3147 8.15931L39.9235 5.82948Z" fill="#9C182F"/>
<path d="M38.5875 5.1795L36.0034 5.68858L36.0694 6.02891L38.6535 5.51983L38.5875 5.1795Z" fill="#9C182F"/>
<path d="M42.195 3.58274L40.8931 3.8466L40.9609 4.18657L42.2628 3.92271L42.195 3.58274Z" fill="#9C182F"/>
<path d="M38.973 1.72557L38.6408 1.81549L38.9997 3.16294L39.3319 3.07302L38.973 1.72557Z" fill="#9C182F"/>
<path d="M36.3114 6.2652L36.136 6.56356L39.5093 8.57868L39.6847 8.28032L36.3114 6.2652Z" fill="#9C182F"/>
<path d="M16.0783 5.88868C15.8622 5.88868 15.6462 5.84028 15.4381 5.74347C14.6938 5.38851 14.3737 4.49306 14.7258 3.74281C15.0779 2.99256 15.9743 2.66988 16.7106 3.02483C17.0707 3.19424 17.3428 3.5008 17.4789 3.87995C17.6149 4.25911 17.5909 4.67054 17.4229 5.03356C17.1748 5.56599 16.6386 5.88868 16.0783 5.88868ZM16.0863 3.21844C15.6542 3.21844 15.238 3.46046 15.0459 3.87995C14.7738 4.46079 15.0219 5.15457 15.5901 5.42885C16.1664 5.70313 16.8546 5.45305 17.1267 4.88028C17.2548 4.59793 17.2708 4.28331 17.1668 3.99289C17.0627 3.70247 16.8546 3.46853 16.5745 3.33138C16.4145 3.25878 16.2464 3.21844 16.0863 3.21844Z" fill="#9C182F"/>
<path d="M18.3171 2.88056L17.0961 3.48436L17.2476 3.79572L18.4685 3.19192L18.3171 2.88056Z" fill="#9C182F"/>
<path d="M14.7695 2.11257L14.4926 2.31829L15.2516 3.35725L15.5285 3.15153L14.7695 2.11257Z" fill="#9C182F"/>
<path d="M14.8618 4.98739L13.6462 6.07299L13.8743 6.33262L15.0898 5.24702L14.8618 4.98739Z" fill="#9C182F"/>
<path d="M17.4466 4.67823L17.3533 5.01201L19.6102 5.6533L19.7035 5.31952L17.4466 4.67823Z" fill="#9C182F"/>
<path d="M16.2963 5.61329L15.6472 8.18538L15.9806 8.27092L16.6297 5.69883L16.2963 5.61329Z" fill="#9C182F"/>
<path d="M16.4089 1.6464L16.088 2.94538L16.4218 3.02922L16.7427 1.73024L16.4089 1.6464Z" fill="#9C182F"/>
<path d="M13.3665 3.79468L13.3049 4.13583L14.6665 4.38584L14.7281 4.04469L13.3665 3.79468Z" fill="#9C182F"/>
<path d="M19.5521 5.94487L16.3003 8.15334L16.4924 8.44102L19.7442 6.23255L19.5521 5.94487Z" fill="#9C182F"/>
<path d="M4.43374 26.581C4.3457 26.581 4.24967 26.5729 4.15363 26.5568C3.76147 26.4842 3.42534 26.2583 3.19325 25.9275C2.96916 25.5968 2.88113 25.1934 2.96116 24.7981C3.03319 24.4028 3.25728 24.064 3.58541 23.8301C3.91354 23.6042 4.31369 23.5154 4.70584 23.5961C5.098 23.6687 5.43413 23.8946 5.66622 24.2254C5.89031 24.5561 5.97835 24.9595 5.89831 25.3548C5.82629 25.7501 5.6022 26.0889 5.27407 26.3228C5.02597 26.4842 4.72985 26.581 4.43374 26.581ZM4.42574 23.9107C4.19364 23.9107 3.96956 23.9833 3.77748 24.1124C3.52138 24.2899 3.35331 24.548 3.29729 24.8546C3.24127 25.1612 3.3053 25.4677 3.48136 25.7259C3.65743 25.984 3.91353 26.1534 4.21765 26.2099C4.52177 26.2664 4.82589 26.2018 5.08199 26.0243C5.33809 25.8469 5.50616 25.5887 5.56218 25.2822C5.6182 24.9756 5.55418 24.6691 5.37811 24.4109C5.20204 24.1528 4.94594 23.9833 4.64182 23.9269C4.56979 23.9188 4.49776 23.9107 4.42574 23.9107Z" fill="#9C182F"/>
<path d="M4.27281 22.3638L4.17493 23.7312L4.51803 23.7562L4.61592 22.3888L4.27281 22.3638Z" fill="#9C182F"/>
<path d="M3.09819 24.9382L1.82549 25.0753L1.86205 25.4201L3.13476 25.283L3.09819 24.9382Z" fill="#9C182F"/>
<path d="M4.67875 26.3714L4.34146 26.4396L4.6609 28.0448L4.99819 27.9766L4.67875 26.3714Z" fill="#9C182F"/>
<path d="M7.05898 22.3991L5.37392 24.0416L5.61295 24.291L7.29802 22.6485L7.05898 22.3991Z" fill="#9C182F"/>
<path d="M5.83939 25.264L5.59814 25.5112L7.4745 27.3719L7.71575 27.1247L5.83939 25.264Z" fill="#9C182F"/>
<path d="M2.48874 23.1645L2.2487 23.4129L3.19995 24.3471L3.43999 24.0987L2.48874 23.1645Z" fill="#9C182F"/>
<path d="M3.46031 26.0812L2.55936 27.1403L2.82042 27.3661L3.72137 26.307L3.46031 26.0812Z" fill="#9C182F"/>
<path d="M7.85696 22.8118L7.51372 22.8345L7.77095 26.7787L8.1142 26.756L7.85696 22.8118Z" fill="#9C182F"/>
<path d="M15.7982 47.4911C15.3901 47.4911 15.0219 47.3298 14.7418 47.0474C14.4617 46.7651 14.3096 46.3859 14.3096 45.9825C14.3096 45.1516 14.9819 44.4821 15.7982 44.4821H15.8062C16.2064 44.4821 16.5825 44.6434 16.8626 44.9257C17.1427 45.2081 17.2948 45.5873 17.2948 45.9906C17.2948 46.394 17.1347 46.7731 16.8546 47.0555C16.5665 47.3378 16.1984 47.4911 15.7982 47.4911ZM14.4777 45.9825H14.6458C14.6458 46.2891 14.7658 46.5876 14.9819 46.8054C15.198 47.0232 15.4861 47.1442 15.7982 47.1523C15.7982 47.1523 15.7982 47.1523 15.8062 47.1523C16.1103 47.1523 16.3985 47.0313 16.6145 46.8135C16.8306 46.5957 16.9507 46.3052 16.9587 45.9906C16.9587 45.6841 16.8386 45.3856 16.6225 45.1678C16.4065 44.95 16.1183 44.8289 15.8062 44.8209C15.8062 44.8209 15.8062 44.8209 15.7982 44.8209C15.166 44.8209 14.6458 45.3372 14.6458 45.9745L14.4777 45.9825Z" fill="#9C182F"/>
<path d="M13.7156 44.3097L13.5001 44.5799L14.56 45.439L14.7756 45.1687L13.7156 44.3097Z" fill="#9C182F"/>
<path d="M14.933 47.0206L14.3216 48.1542L14.6237 48.32L15.2352 47.1863L14.933 47.0206Z" fill="#9C182F"/>
<path d="M16.9903 46.523L16.8542 46.8415L18.3455 47.4894L18.4816 47.171L16.9903 46.523Z" fill="#9C182F"/>
<path d="M15.455 42.2242L15.1156 42.2806L15.4967 44.6121L15.8361 44.5557L15.455 42.2242Z" fill="#9C182F"/>
<path d="M19.3392 44.4384L16.7525 44.9344L16.8168 45.2751L19.4035 44.779L19.3392 44.4384Z" fill="#9C182F"/>
<path d="M14.4376 46.2609L13.1343 46.5177L13.2003 46.858L14.5036 46.6013L14.4376 46.2609Z" fill="#9C182F"/>
<path d="M16.3997 47.2778L16.067 47.3661L16.4197 48.7152L16.7523 48.6269L16.3997 47.2778Z" fill="#9C182F"/>
<path d="M15.9001 41.8638L15.7234 42.1614L19.0877 44.1915L19.2644 43.8939L15.9001 41.8638Z" fill="#9C182F"/>
<path d="M39.4795 47.0877C39.2074 47.0877 38.9433 47.0151 38.7112 46.8699C38.367 46.6602 38.127 46.3294 38.0309 45.9422C37.9349 45.555 37.9989 45.1516 38.199 44.8047C38.6232 44.0948 39.5435 43.8689 40.2478 44.2965C40.5919 44.5063 40.832 44.837 40.9281 45.2242C41.0241 45.6115 40.9601 46.0148 40.76 46.3617C40.5519 46.7086 40.2238 46.9506 39.8396 47.0474C39.7276 47.0716 39.5995 47.0877 39.4795 47.0877ZM39.4875 44.4175C39.0953 44.4175 38.7192 44.6192 38.5031 44.9741C38.343 45.2404 38.295 45.555 38.367 45.8535C38.4391 46.152 38.6232 46.4101 38.8873 46.5714C39.1514 46.7328 39.4555 46.7812 39.7596 46.7086C40.0557 46.636 40.3118 46.4504 40.4719 46.1842C40.6319 45.918 40.68 45.6034 40.6079 45.3049C40.5359 45.0064 40.3518 44.7483 40.0877 44.5869C39.8957 44.474 39.6876 44.4175 39.4875 44.4175Z" fill="#9C182F"/>
<path d="M38.2691 46.053L36.993 46.5272L37.112 46.8526L38.3881 46.3784L38.2691 46.053Z" fill="#9C182F"/>
<path d="M40.2127 46.6949L39.9165 46.8713L40.5675 47.9822L40.8637 47.8059L40.2127 46.6949Z" fill="#9C182F"/>
<path d="M41.8785 43.8682L40.5603 44.8244L40.7612 45.106L42.0794 44.1497L41.8785 43.8682Z" fill="#9C182F"/>
<path d="M36.104 43.9536L35.9777 44.2761L38.1578 45.144L38.2842 44.8215L36.104 43.9536Z" fill="#9C182F"/>
<path d="M39.9874 41.7303L39.0812 44.2212L39.4042 44.3407L40.3104 41.8498L39.9874 41.7303Z" fill="#9C182F"/>
<path d="M39.0217 46.8985L38.5713 48.1579L38.8949 48.2756L39.3453 47.0162L39.0217 46.8985Z" fill="#9C182F"/>
<path d="M40.8911 45.7217L40.7955 46.0548L42.1249 46.4427L42.2206 46.1096L40.8911 45.7217Z" fill="#9C182F"/>
<path d="M39.4873 41.5009L36.0314 43.3687L36.1939 43.6744L39.6498 41.8066L39.4873 41.5009Z" fill="#9C182F"/>
<path d="M51.6443 26.6778C51.1321 26.6778 50.6279 26.4116 50.3478 25.9275C49.9396 25.2096 50.1797 24.2899 50.892 23.8704C51.6043 23.459 52.5166 23.701 52.9328 24.419C53.1329 24.7659 53.1889 25.1692 53.0849 25.5564C52.9808 25.9437 52.7327 26.2664 52.3886 26.468C52.1565 26.6132 51.9004 26.6778 51.6443 26.6778ZM51.6443 24.0156C51.4522 24.0156 51.2521 24.064 51.0681 24.1689C50.5159 24.4916 50.3318 25.2015 50.6439 25.7581C50.796 26.0243 51.0441 26.218 51.3402 26.2986C51.6363 26.3793 51.9484 26.339 52.2125 26.1857C52.7647 25.863 52.9488 25.1531 52.6367 24.5965C52.4286 24.2173 52.0445 24.0156 51.6443 24.0156Z" fill="#9C182F"/>
<path d="M51.4666 26.4819L51.2638 27.8375L51.604 27.8892L51.8067 26.5336L51.4666 26.4819Z" fill="#9C182F"/>
<path d="M54.2368 25.0281L52.9575 25.0678L52.9681 25.4144L54.2474 25.3747L54.2368 25.0281Z" fill="#9C182F"/>
<path d="M51.6477 22.1937L51.3063 22.2358L51.5034 23.8608L51.8449 23.8187L51.6477 22.1937Z" fill="#9C182F"/>
<path d="M48.8191 27.6372L48.6031 27.3791L50.4111 25.8711L50.6271 26.1291L48.8191 27.6372Z" fill="#9C182F"/>
<path d="M48.7943 22.643L48.5351 22.871L50.2648 24.871L50.524 24.6431L48.7943 22.643Z" fill="#9C182F"/>
<path d="M52.8196 25.9834L52.5614 26.2125L53.4389 27.2174L53.6971 26.9882L52.8196 25.9834Z" fill="#9C182F"/>
<path d="M53.4244 23.0098L52.4472 23.9978L52.6907 24.2427L53.6679 23.2548L53.4244 23.0098Z" fill="#9C182F"/>
<path d="M48.5091 23.2172L48.4687 27.1697L48.8127 27.1733L48.8531 23.2207L48.5091 23.2172Z" fill="#9C182F"/>
<path d="M41.8409 11.5117L41.5671 11.7216L43.3585 14.0967L43.6323 13.8869L41.8409 11.5117Z" fill="#9C182F"/>
<path d="M45.8471 17.5245L45.593 17.7582L47.5503 19.9207L47.8044 19.6869L45.8471 17.5245Z" fill="#9C182F"/>
<path d="M29.3963 4.96438L29.3628 5.30952L32.557 5.62398L32.5904 5.27883L29.3963 4.96438Z" fill="#9C182F"/>
<path d="M22.0991 5.12828L22.0454 5.4708L25.144 5.96446L25.1977 5.62195L22.0991 5.12828Z" fill="#9C182F"/>
<path d="M13.7894 9.89804L12.5819 13.4547L12.9074 13.5671L14.1149 10.0104L13.7894 9.89804Z" fill="#9C182F"/>
<path d="M10.5745 16.6784L8.68388 19.9466L8.98103 20.1214L10.8717 16.8532L10.5745 16.6784Z" fill="#9C182F"/>
<path d="M9.25681 30.0879L8.93372 30.207L10.0412 33.2603L10.3643 33.1412L9.25681 30.0879Z" fill="#9C182F"/>
<path d="M12.684 36.0474L12.3543 36.1467L13.3961 39.6637L13.7257 39.5645L12.684 36.0474Z" fill="#9C182F"/>
<path d="M25.5351 43.6868L22.3093 44.2467L22.3677 44.5885L25.5934 44.0285L25.5351 43.6868Z" fill="#9C182F"/>
<path d="M32.7204 43.9608L29.1984 44.3711L29.2379 44.7156L32.7599 44.3053L32.7204 43.9608Z" fill="#9C182F"/>
<path d="M43.76 36.0589L41.4789 38.9184L41.7469 39.1358L44.028 36.2763L43.76 36.0589Z" fill="#9C182F"/>
<path d="M47.5501 29.9265L44.6901 32.8599L44.9354 33.103L47.7954 30.1697L47.5501 29.9265Z" fill="#9C182F"/>
<path d="M55.998 24.8465C55.998 24.7739 55.982 24.7013 55.974 24.6287C55.966 24.5561 55.958 24.4916 55.95 24.419C55.942 24.3786 55.934 24.3464 55.926 24.306C55.91 24.2012 55.886 24.1044 55.8619 23.9995V23.9914C55.4858 22.5474 54.3734 21.3373 52.8448 20.942C51.8044 20.6677 50.7159 20.8049 49.7716 21.3212L46.5223 23.1282C46.5063 22.9427 46.4743 22.7571 46.4502 22.5716L49.3714 20.8936L49.5395 20.7726C50.5559 19.853 50.916 18.4251 50.4438 17.1343C49.8196 15.3999 47.9068 14.5044 46.1941 15.1337C45.5139 15.3837 44.9537 15.8516 44.5615 16.4567C44.4415 16.2227 44.3214 15.9969 44.1934 15.771L45.6979 14.8755L45.77 14.8271C47.2826 13.7219 47.6347 11.5841 46.5383 10.0594C45.4419 8.53471 43.321 8.17976 41.8084 9.28496L40.2398 10.8903C40.1358 10.8016 40.0317 10.7128 39.9277 10.6241L42.8168 7.34077C43.209 6.89708 43.4971 6.38884 43.6812 5.84834H43.6892C43.7612 5.62246 43.8092 5.39658 43.8412 5.1707C43.8492 5.1465 43.8492 5.11423 43.8572 5.09003C43.8652 5.00129 43.8732 4.91255 43.8812 4.82381C43.8892 4.76734 43.8892 4.7028 43.8892 4.64633C43.8892 4.58986 43.8892 4.53339 43.8892 4.48499C43.8892 4.42045 43.8892 4.34785 43.8892 4.28331C43.8892 4.25104 43.8812 4.21877 43.8812 4.1865C43.8812 4.17844 43.8812 4.17844 43.8812 4.17037C43.7932 3.0813 43.313 2.0729 42.4967 1.33879C41.6564 0.580476 40.5759 0.201319 39.4555 0.257789C38.3271 0.322326 37.2947 0.814424 36.5424 1.66148L36.5584 1.67761C36.1662 2.11324 35.8621 2.62954 35.67 3.21038L34.3015 7.36497C34.1974 7.32463 34.0854 7.29237 33.9813 7.25203L34.5736 5.25944L34.6056 5.07389C34.6936 4.1623 34.4295 3.27491 33.8613 2.565C33.2851 1.85509 32.4768 1.41946 31.5724 1.32266C29.7077 1.12904 28.043 2.50046 27.8589 4.38012L27.8189 6.24363C27.5308 6.24363 27.2427 6.2517 26.9546 6.26784C27.3147 5.60633 27.4508 4.84801 27.3147 4.09776C26.9946 2.28265 25.2659 1.06451 23.4732 1.38719C22.1287 1.62921 21.0803 2.65374 20.8002 4.00096L20.7762 7.60699C20.6001 7.67959 20.424 7.75219 20.248 7.83287L20.1759 4.13003C20.1439 3.04903 19.7197 2.03257 18.9674 1.26619C17.855 0.128714 16.2624 -0.242376 14.8378 0.152915C14.8298 0.152915 14.8298 0.152916 14.8218 0.160983C14.7258 0.185184 14.6377 0.217453 14.5497 0.249721C14.5097 0.265856 14.4697 0.273923 14.4297 0.290057C14.3656 0.314259 14.3096 0.346527 14.2536 0.370729C14.1816 0.402997 14.1095 0.435267 14.0455 0.467536C14.0215 0.475603 14.0055 0.491737 13.9815 0.499804C13.2772 0.870894 12.693 1.4356 12.2928 2.15357C11.7406 3.13777 11.5966 4.29138 11.8927 5.38045C12.1808 6.42111 12.837 7.3085 13.7574 7.8732L16.8706 9.76899C16.7186 9.88193 16.5665 9.99487 16.4144 10.1159L13.5333 8.43791L13.3492 8.35723C12.0527 7.92967 10.6522 8.33303 9.77184 9.38176C9.20362 10.0675 8.93151 10.9307 9.01154 11.8261C9.09157 12.7135 9.50773 13.5202 10.18 14.093C10.7402 14.569 11.4445 14.8271 12.1728 14.8594C12.0367 15.0853 11.9007 15.3192 11.7726 15.5532L10.244 14.69L10.164 14.6496C9.33967 14.2785 8.41931 14.2463 7.57097 14.569C6.72264 14.8916 6.05038 15.529 5.68223 16.3599C4.91393 18.0782 5.67423 20.103 7.3789 20.8775L9.6918 21.4503C9.6678 21.5713 9.65179 21.7003 9.62778 21.8214L5.07399 20.8614C4.3377 20.7081 3.60141 20.7565 2.93715 20.9662C2.92115 20.9662 2.91314 20.9743 2.89714 20.9824C2.78509 21.0227 2.67305 21.063 2.56901 21.1034C2.52099 21.1276 2.47297 21.1518 2.42495 21.1679C2.35292 21.2002 2.2889 21.2324 2.21687 21.2728C2.14484 21.3131 2.08081 21.3535 2.01679 21.3938C1.96877 21.4261 1.92075 21.4503 1.88074 21.4825C1.80871 21.5309 1.74469 21.5793 1.67266 21.6358C1.63264 21.6681 1.59262 21.7003 1.55261 21.7326C1.49659 21.781 1.43256 21.8375 1.37654 21.8859C1.32852 21.9262 1.2805 21.9746 1.24049 22.015C1.20047 22.0553 1.15245 22.1037 1.11244 22.1521C1.05641 22.2086 1.00039 22.2731 0.952373 22.3377C0.920361 22.3699 0.896352 22.4103 0.872343 22.4425C0.816321 22.5232 0.752293 22.5958 0.704274 22.6765C0.696271 22.6845 0.688269 22.6926 0.680266 22.7087C0.66426 22.7329 0.656257 22.7571 0.640251 22.7813C0.592232 22.862 0.53621 22.9508 0.496194 23.0395C0.472185 23.0879 0.448175 23.1363 0.424166 23.1766C0.392153 23.2492 0.352137 23.3218 0.320124 23.4025C0.288111 23.4751 0.264103 23.5477 0.240094 23.6203C0.224087 23.6768 0.200078 23.7252 0.184072 23.7817C0.152059 23.8785 0.128048 23.9834 0.104039 24.0802C0.0960355 24.1044 0.0880334 24.1286 0.0800302 24.1608C0.0800302 24.1689 0.0800302 24.177 0.0800302 24.185C0.0560208 24.298 0.0400147 24.4109 0.0240085 24.5239C0.0240085 24.5561 0.0160036 24.5803 0.0160036 24.6126C0.0160036 24.6933 0.0080018 24.7981 0.0080018 24.903C0.0080018 24.9433 0 24.9837 0 25.016C0 25.1047 0.0080018 25.1934 0.0080018 25.2822C0.0080018 25.3386 0.0160036 25.387 0.0160036 25.4435C0.0240067 25.5242 0.0400138 25.5968 0.0480169 25.6775C0.0560201 25.7339 0.0640239 25.7985 0.0800302 25.8549C0.0800302 25.8711 0.0800289 25.8872 0.088032 25.8953C0.104038 25.9759 0.128049 26.0486 0.152059 26.1292C0.160062 26.1696 0.168066 26.2099 0.184072 26.2422C0.416163 27.0247 0.864338 27.7185 1.48058 28.2428C1.48858 28.2509 1.48858 28.2509 1.49659 28.259C1.58462 28.3316 1.68066 28.4042 1.76869 28.4768C1.7927 28.4929 1.80871 28.509 1.83272 28.5252C1.85673 28.5413 1.88874 28.5655 1.91275 28.5816C1.97678 28.622 2.0408 28.6542 2.10482 28.6946C2.12883 28.7107 2.15285 28.7269 2.18486 28.743C2.2889 28.7995 2.40094 28.8559 2.50498 28.9043C2.52099 28.9124 2.52899 28.9205 2.545 28.9205C3.33731 29.2674 4.22566 29.3642 5.09 29.1786L9.65979 28.1944C9.6758 28.2751 9.6838 28.3477 9.69981 28.4284L7.35489 28.9689L7.17882 29.0253C6.35449 29.3964 5.72225 30.0741 5.40212 30.9292C5.082 31.7843 5.106 32.712 5.48215 33.543C6.25045 35.2613 8.25924 36.0276 9.96391 35.2532L11.8206 34.2448C11.9087 34.4061 12.0047 34.5675 12.1008 34.7288C11.2924 34.7046 10.5081 34.9789 9.89188 35.5033C9.21162 36.076 8.79545 36.8828 8.72343 37.7702C8.6514 38.6575 8.9155 39.5288 9.48372 40.2145C10.3641 41.2713 11.7646 41.6747 13.0611 41.239L16.4945 39.7224C16.6545 39.8515 16.8146 39.9806 16.9827 40.1016L13.6374 42.1345C12.725 42.6992 12.0607 43.5866 11.7806 44.6273C11.4845 45.7244 11.6206 46.8699 12.1808 47.8541C12.5169 48.4592 12.9891 48.9513 13.5493 49.3224C13.6374 49.3788 13.7334 49.4353 13.8294 49.4837C13.8614 49.4998 13.8935 49.516 13.9175 49.5321C13.9815 49.5644 14.0455 49.5886 14.1095 49.6208C14.1736 49.6531 14.2376 49.6854 14.3096 49.7096C14.3496 49.7257 14.3897 49.7419 14.4377 49.7499C14.5257 49.7822 14.6217 49.8145 14.7098 49.8387C14.7178 49.8387 14.7258 49.8467 14.7338 49.8467C15.1019 49.9516 15.4781 50 15.8622 50C16.9507 50 18.0471 49.5805 18.8634 48.7335C19.6157 47.9671 20.0479 46.9425 20.0719 45.8615L20.1439 41.9893C20.336 42.078 20.5201 42.1668 20.7201 42.2474L21.1123 45.8293L21.1283 45.918C21.4084 47.2652 22.4568 48.2898 23.8014 48.5318C25.6021 48.8545 27.3307 47.6363 27.6429 45.8212C27.7709 45.1032 27.6429 44.3772 27.3227 43.7318C27.4668 43.7399 27.6108 43.7399 27.7629 43.7399L27.8109 45.5469L27.8189 45.6195C27.907 46.5311 28.3471 47.3459 29.0514 47.9267C29.7557 48.5076 30.636 48.7738 31.5324 48.677C32.4367 48.5882 33.2451 48.1445 33.8213 47.4346C34.3975 46.7247 34.6616 45.8373 34.5656 44.9257L33.9093 42.7718C34.0054 42.7395 34.1094 42.7073 34.2054 42.675L35.566 46.7893C35.7741 47.4266 36.1182 47.9832 36.5664 48.4511C36.5824 48.4753 36.6064 48.4914 36.6224 48.5076C36.6384 48.5237 36.6464 48.5318 36.6624 48.5479C37.4067 49.3304 38.3991 49.7983 39.4795 49.8548C39.5595 49.8629 39.6316 49.8629 39.7116 49.8629C40.752 49.8629 41.7444 49.4837 42.5207 48.7738C43.361 48.0155 43.8572 46.9748 43.9132 45.8373C43.9773 44.6999 43.5931 43.6108 42.8408 42.7718L39.8877 39.4159C39.9597 39.3594 40.0237 39.2949 40.0957 39.2384L41.6083 40.8518L41.7444 40.9728C43.265 42.078 45.3858 41.7231 46.4743 40.1984C47.5707 38.6656 47.2185 36.5278 45.706 35.4307L44.0893 34.4303C44.1614 34.3013 44.2414 34.1722 44.3134 34.0351C44.7056 34.6482 45.2738 35.1241 45.9621 35.3823C47.6827 36.0115 49.5875 35.1161 50.2117 33.3816C50.6759 32.0909 50.3238 30.663 49.3074 29.7433L46.4262 27.6217C46.4583 27.4119 46.4823 27.1941 46.5063 26.9763L49.7716 28.7995C50.7159 29.3158 51.8044 29.4448 52.8448 29.1786C53.9332 28.8963 54.8535 28.1944 55.4218 27.2183C55.8299 26.5164 56.022 25.7259 55.998 24.9272C55.998 24.903 55.998 24.8788 55.998 24.8465ZM13.7654 4.86415C13.6053 4.26717 13.6774 3.646 13.9815 3.11357C14.1015 2.89576 14.2616 2.71021 14.4457 2.54887C14.5177 2.48433 14.5897 2.42786 14.6698 2.37139C14.7258 2.33105 14.7818 2.29878 14.8378 2.26652C14.9019 2.22618 14.9739 2.19391 15.0379 2.16164C15.1099 2.12937 15.19 2.09711 15.27 2.0729C16.0703 1.80669 16.9827 1.99223 17.6069 2.63761C18.0151 3.0571 18.2472 3.60567 18.2632 4.1865L18.3352 8.10715C18.3272 8.21202 18.3432 8.30883 18.3512 8.40564C18.2712 8.34917 18.1911 8.2927 18.0951 8.24429L14.7738 6.21943C14.2776 5.90481 13.9175 5.42885 13.7654 4.86415ZM18.2072 41.9167L18.1351 45.8293C18.1191 46.4182 17.887 46.9667 17.4789 47.3862C16.8466 48.0316 15.9343 48.2091 15.1339 47.9509C15.0539 47.9267 14.9819 47.8945 14.9099 47.8622C14.8378 47.8299 14.7738 47.7977 14.7018 47.7573C14.6458 47.7251 14.5897 47.6928 14.5417 47.6524C14.4617 47.596 14.3897 47.5395 14.3176 47.475C14.1416 47.3136 13.9815 47.1281 13.8534 46.9103C13.5493 46.3778 13.4773 45.7567 13.6374 45.1597C13.7894 44.595 14.1496 44.119 14.6377 43.8125L17.9671 41.7876C18.0551 41.7392 18.1431 41.6827 18.2232 41.6263C18.2072 41.715 18.1992 41.8118 18.2072 41.9167ZM28.003 42.0861C18.6633 42.0861 11.0603 34.4223 11.0603 25.0079C11.0603 13.9155 19.7918 7.92967 28.003 7.92967C37.3427 7.92967 44.9457 15.5935 44.9457 25.0079C44.9457 34.4223 37.3427 42.0861 28.003 42.0861ZM46.0661 17.699L46.0981 17.6426C46.2582 17.3279 46.5303 17.0859 46.8584 16.9649C47.5787 16.6987 48.371 17.0779 48.6351 17.8039C48.8192 18.3121 48.6991 18.8768 48.323 19.2641L46.0821 20.5467C45.922 19.8933 45.738 19.256 45.5139 18.6348L46.0661 17.699ZM43.0009 10.8258C43.305 10.6241 43.6652 10.5515 44.0253 10.608C44.4094 10.6725 44.7456 10.8823 44.9777 11.1969C45.4419 11.8423 45.3058 12.7458 44.6816 13.2298L43.161 14.1333C42.6888 13.4718 42.1766 12.8345 41.6244 12.2375L43.0009 10.8258ZM37.5107 3.80735C37.7028 3.21844 38.103 2.74248 38.6472 2.46819C39.1914 2.19391 39.8156 2.14551 40.3919 2.33105C41.2882 2.62954 41.8805 3.42819 41.9605 4.32365V4.33171C41.9685 4.41238 41.9605 4.50112 41.9605 4.5818C41.9605 4.66247 41.9605 4.73507 41.9525 4.81574C41.9525 4.83188 41.9445 4.85608 41.9365 4.87221C41.8644 5.29977 41.6804 5.70313 41.3843 6.03389L38.3831 9.43823C37.6548 8.93807 36.8865 8.49438 36.0862 8.10715L37.5107 3.80735ZM31.3883 3.26685C31.7725 3.30718 32.1246 3.49273 32.3727 3.79928C32.6048 4.08163 32.7169 4.43659 32.7008 4.79961L32.1326 6.7196C31.3563 6.54212 30.572 6.41304 29.7637 6.33237L29.7957 4.54953C29.8917 3.75894 30.604 3.19424 31.3883 3.26685ZM22.7209 4.31558C22.865 3.79121 23.2811 3.40399 23.8174 3.30718C24.5697 3.17004 25.2899 3.67827 25.426 4.43659C25.49 4.78347 25.418 5.1465 25.2259 5.43692L24.6257 6.52598C23.9774 6.63893 23.3372 6.77607 22.7129 6.95354L22.7209 4.31558ZM12.4289 12.9233H12.3969C12.0527 12.9394 11.7006 12.8264 11.4365 12.6006C11.1564 12.3586 10.9803 12.0278 10.9483 11.6486C10.9163 11.2776 11.0283 10.9145 11.2684 10.6322C11.6126 10.2127 12.1648 10.0433 12.677 10.1804L14.8858 11.4712C14.4057 11.9391 13.9575 12.4312 13.5333 12.9555L12.4289 12.9233ZM8.11519 19.0624C7.43492 18.7074 7.1308 17.8684 7.45093 17.1505C7.61099 16.7955 7.8991 16.5212 8.26725 16.376C8.61938 16.2389 9.00353 16.2469 9.34767 16.3921L10.9243 17.2876C10.6122 18.0136 10.3481 18.772 10.132 19.5545L8.11519 19.0624ZM4.68984 27.2748C4.36971 27.3474 4.04159 27.3312 3.72947 27.2667C3.59341 27.2344 3.45736 27.1941 3.32931 27.1376C3.28929 27.1215 3.24927 27.0973 3.21726 27.0812C3.12122 27.0327 3.03319 26.9924 2.94515 26.9279C2.89714 26.8956 2.85712 26.8553 2.8171 26.823C2.73707 26.7665 2.66505 26.702 2.59302 26.6375C2.56901 26.6133 2.553 26.5891 2.52899 26.5649C2.44896 26.4761 2.37693 26.3874 2.3049 26.2825C2.2889 26.2502 2.27289 26.218 2.25689 26.1938C2.20086 26.097 2.14484 26.0001 2.10482 25.8953C2.07281 25.8227 2.05681 25.7501 2.0328 25.6775C2.00879 25.6129 1.98478 25.5403 1.97677 25.4758C1.96077 25.387 1.95276 25.2983 1.94476 25.2096C1.93676 25.145 1.92876 25.0805 1.92876 25.016C1.92876 24.9433 1.93676 24.8788 1.94476 24.8143C1.95276 24.7336 1.95277 24.6449 1.96877 24.5642C1.98478 24.4997 2.00879 24.4432 2.02479 24.3786C2.0488 24.298 2.07281 24.2092 2.10482 24.1366C2.13684 24.056 2.18486 23.9753 2.23287 23.8946C2.26489 23.8462 2.2889 23.7897 2.32091 23.7413C2.36893 23.6687 2.43295 23.6042 2.48898 23.5316C2.52899 23.4832 2.56901 23.4348 2.60902 23.3864C2.65704 23.338 2.71307 23.2976 2.76909 23.2492C2.83311 23.2008 2.88913 23.1444 2.95316 23.096C3.00918 23.0556 3.07321 23.0314 3.12923 22.9992C3.20126 22.9588 3.26528 22.9185 3.33731 22.8862C3.42534 22.8459 3.52138 22.8217 3.61742 22.7975C3.95355 22.7007 4.3217 22.6765 4.68184 22.7571L9.4197 23.7575C9.39569 24.1689 9.37968 24.5803 9.37968 24.9998C9.37968 25.4193 9.39569 25.8307 9.4277 26.2422L4.68984 27.2748ZM9.13959 33.4946C8.4113 33.8092 7.56297 33.4784 7.24285 32.7443C7.08278 32.3894 7.07478 31.986 7.21083 31.623C7.33888 31.2842 7.57898 31.0099 7.8991 30.8405L10.156 30.3161C10.3801 31.0663 10.6442 31.8004 10.9483 32.5104L9.13959 33.4946ZM12.4129 39.4078C11.8847 39.5691 11.3164 39.3997 10.9563 38.9641C10.7162 38.6818 10.6042 38.3187 10.6362 37.9476C10.6682 37.5765 10.8443 37.2377 11.1244 36.9957C11.3965 36.7698 11.7406 36.6569 12.0927 36.673L13.4853 36.7376C13.9255 37.2861 14.3897 37.8186 14.8858 38.3107L12.4129 39.4078ZM25.53 44.4901C25.7221 44.7886 25.7941 45.1436 25.7301 45.4905C25.5941 46.2488 24.8818 46.757 24.1215 46.6199C23.5693 46.523 23.1451 46.1116 23.017 45.5711L22.7289 42.9896C23.4332 43.1994 24.1615 43.3688 24.8978 43.4979L25.53 44.4901ZM32.6368 45.2323C32.6688 46.0067 32.1006 46.6763 31.3243 46.757C30.9402 46.7973 30.556 46.6844 30.2519 46.4343C29.9558 46.1923 29.7717 45.8535 29.7237 45.4743L29.6757 43.6834C30.484 43.6108 31.2683 43.4817 32.0446 43.3123L32.6368 45.2323ZM41.3923 44.0868C41.5683 44.2884 41.6964 44.5143 41.8004 44.7483L41.7364 44.7725C42.1286 45.9825 41.4723 47.2814 40.2718 47.6767C39.0713 48.0719 37.7828 47.4104 37.3827 46.2004L35.9821 41.957C36.7985 41.5617 37.5828 41.118 38.3271 40.6098L41.3923 44.0868ZM44.5935 37.0441C45.2258 37.5201 45.3618 38.4317 44.8976 39.077C44.4415 39.7143 43.5771 39.8757 42.9289 39.4562L41.4883 37.9234C42.0405 37.3426 42.5527 36.7214 43.0249 36.0761L44.5935 37.0441ZM48.0349 31.2357C48.435 31.623 48.5711 32.2038 48.387 32.7282C48.1229 33.4542 47.3306 33.8253 46.6103 33.5672C46.2822 33.4462 46.0101 33.2041 45.842 32.8815L45.3218 31.865C45.5939 31.1712 45.826 30.4613 46.0181 29.7353L48.0349 31.2357ZM54.0532 25.266C54.0452 25.3628 54.0292 25.4516 54.0132 25.5484C53.9652 25.7904 53.8852 26.0163 53.7571 26.2341C53.445 26.7665 52.9488 27.1457 52.3646 27.299C51.8043 27.4442 51.2121 27.3716 50.7079 27.0973L47.3066 25.2015C47.2185 25.145 47.1305 25.1047 47.0425 25.0644C47.1305 25.024 47.2266 24.9756 47.3066 24.9272L50.7079 23.0395C51.2201 22.7571 51.8124 22.6926 52.3726 22.8378C53.2449 23.0637 53.8532 23.7736 54.0292 24.6045C54.0452 24.6852 54.0612 24.7659 54.0692 24.8465C54.0772 24.9272 54.0772 24.9998 54.0772 25.0805C54.0612 25.1289 54.0612 25.1934 54.0532 25.266Z" fill="#9C182F"/>
<path d="M21.9526 36.6327L20.4881 37.1409C20.288 37.2135 20.1919 37.3507 20.1919 37.5523C20.1919 37.8428 20.304 37.996 20.5521 38.0202H35.3579C35.638 38.0202 35.7901 37.867 35.8141 37.5443C35.8141 37.4233 35.7421 37.3023 35.598 37.2055L33.9173 36.6166V28.5171C33.9173 28.1379 33.9814 27.7991 34.1014 27.5087C34.1734 27.2264 34.2695 27.0569 34.3975 26.9924V26.5729C32.9329 26.5729 31.4924 26.1454 30.0838 25.2822C28.6913 24.4916 27.4348 23.4106 26.3223 22.0553L27.3227 20.0788C27.5788 20.6435 28.083 21.2889 28.8593 22.0069C29.2595 22.3457 29.6837 22.62 30.1318 22.8217C30.58 23.0879 31.0362 23.217 31.5004 23.217C32.6608 23.1928 33.5412 22.5958 34.1334 21.4341C34.7016 20.2967 34.9898 19.0866 34.9898 17.812C34.9097 13.9074 32.7649 11.9713 28.5392 11.9955C26.6905 12.0197 25.1459 12.5602 23.9054 13.6332C22.6329 14.698 21.9766 16.0372 21.9526 17.6426V36.6327ZM26.3223 20.2321V17.6345C26.2983 16.6906 26.4184 15.7629 26.6825 14.8271C26.9706 13.9236 27.5708 13.4557 28.4992 13.3992C29.4596 13.4557 30.1639 13.9559 30.612 14.9158C31.0682 15.8436 31.2923 16.7471 31.2923 17.6345C31.2923 18.3605 31.2043 19.1108 31.0362 19.9014C30.9322 20.2482 30.7801 20.5467 30.58 20.7888C30.4039 21.0711 30.1398 21.2082 29.7877 21.2082C29.3635 21.184 28.9154 20.8614 28.4352 20.2402C27.971 19.6432 27.6349 19.0866 27.4268 18.5703H27.3548L26.3223 20.2321ZM29.5476 37.036H26.3223V23.4429C27.3307 24.5642 28.4112 25.4596 29.5476 26.1373V37.036Z" fill="#008996"/>
<path d="M74.9893 12.5881C74.5748 12.8044 73.6661 13.1088 72.5104 13.1088C69.9039 13.1088 68.2061 11.3143 68.2061 8.66265C68.2061 5.98694 70.0314 4.04825 72.8451 4.04825C73.7698 4.04825 74.5987 4.28058 75.0212 4.49688L74.6625 5.71457C74.2879 5.49827 73.698 5.29799 72.8451 5.29799C70.8604 5.29799 69.7923 6.77203 69.7923 8.58254C69.7923 10.5933 71.0756 11.827 72.7893 11.827C73.6821 11.827 74.2719 11.5947 74.7183 11.3944L74.9893 12.5881Z" fill="#18212E"/>
<path d="M77.8269 4.22453V7.8856C77.8269 9.26351 77.811 10.1287 77.7392 11.3624H77.795C78.3131 10.321 78.616 9.71214 79.1899 8.71075L81.8841 4.22453H83.7254V12.9086H82.2189V9.23147C82.2189 7.8135 82.2508 7.07648 82.3225 5.67454H82.2667C81.7167 6.78808 81.3341 7.48505 80.8399 8.36627C80.0189 9.71214 79.0704 11.3784 78.1458 12.9086H76.3443V4.22453H77.8269Z" fill="#18212E"/>
<path d="M92.3818 4.22452V12.9086H90.8274V5.48226H87.8623V7.68532C87.8623 10.1287 87.6311 11.7389 86.5072 12.476C86.0768 12.8365 85.5985 13.0287 84.7935 13.0287L84.6341 11.771C84.937 11.7389 85.2797 11.5947 85.4949 11.4105C86.3 10.8337 86.3877 9.616 86.3877 7.67731V4.21651H92.3818V4.22452Z" fill="#18212E"/>
<path d="M100.576 10.8257C100.576 11.5787 100.608 12.3157 100.719 12.9086H99.2925L99.165 11.811H99.1092C98.631 12.492 97.6984 13.1008 96.4629 13.1008C94.7093 13.1008 93.8245 11.8671 93.8245 10.6094C93.8245 8.51047 95.6817 7.36488 99.0215 7.3809V7.20466C99.0215 6.48366 98.8223 5.19387 97.0607 5.19387C96.2556 5.19387 95.4187 5.44221 94.8129 5.84277L94.4542 4.80132C95.1716 4.33668 96.2078 4.03226 97.2918 4.03226C99.9382 4.03226 100.576 5.84277 100.576 7.58919V10.8257ZM99.0534 8.47843C97.3397 8.44638 95.3948 8.7508 95.3948 10.4331C95.3948 11.4586 96.0723 11.9392 96.8774 11.9392C98.0013 11.9392 98.7186 11.2182 98.9657 10.4892C99.0215 10.329 99.0534 10.1527 99.0534 9.98451V8.47843Z" fill="#18212E"/>
<path d="M68 20.2975C68.6058 20.1933 69.7297 20.0972 70.75 20.0972C72.1927 20.0972 74.5919 20.3295 74.5919 22.2682C74.5919 23.3417 73.7709 24.0066 72.7905 24.2229V24.255C74.0579 24.4312 74.9825 25.1522 74.9825 26.41C74.9825 28.6851 72.1289 28.9735 70.4311 28.9735C69.4666 28.9735 68.4703 28.9014 68 28.8694V20.2975ZM69.4826 27.8359C69.929 27.892 70.2478 27.908 70.75 27.908C71.8021 27.908 73.3724 27.6597 73.3724 26.4019C73.3724 25.1442 72.121 24.8798 70.6224 24.8798H69.4826V27.8359ZM69.4985 23.8384H70.6782C71.842 23.8384 73.0376 23.4939 73.0376 22.4765C73.0376 21.6113 72.2883 21.2027 70.7181 21.2027C70.2 21.2027 69.8811 21.2348 69.5065 21.2748V23.8384H69.4985Z" fill="#18212E"/>
<path d="M84.3324 24.4633C84.3324 27.6757 82.1165 29.0777 80.0281 29.0777C77.6926 29.0777 75.8832 27.3553 75.8832 24.6075C75.8832 21.6994 77.7723 19.9931 80.1716 19.9931C82.6585 19.9931 84.3324 21.8036 84.3324 24.4633ZM77.4774 24.5514C77.4774 26.45 78.5694 27.892 80.0998 27.892C81.5984 27.892 82.7222 26.474 82.7222 24.5193C82.7222 23.0453 81.9889 21.1787 80.1317 21.1787C78.2825 21.1787 77.4774 22.9011 77.4774 24.5514Z" fill="#18212E"/>
<path d="M92.4228 20.1933V28.8774H90.8685V21.4511H87.9033V23.6541C87.9033 26.0975 87.6721 27.7078 86.5483 28.4448C86.1178 28.8053 85.6396 29.0056 84.8345 29.0056L84.6751 27.7478C84.978 27.7158 85.3207 27.5716 85.536 27.3873C86.341 26.8105 86.4287 25.5928 86.4287 23.6541V20.1933H92.4228Z" fill="#18212E"/>
<path d="M102.363 24.4633C102.363 27.6757 100.147 29.0777 98.0582 29.0777C95.7228 29.0777 93.9134 27.3553 93.9134 24.6075C93.9134 21.6994 95.8025 19.9931 98.2017 19.9931C100.689 19.9931 102.363 21.8036 102.363 24.4633ZM95.5076 24.5514C95.5076 26.45 96.5996 27.892 98.13 27.892C99.6285 27.892 100.752 26.474 100.752 24.5193C100.752 23.0453 100.019 21.1787 98.1619 21.1787C96.3126 21.1787 95.5076 22.9011 95.5076 24.5514Z" fill="#18212E"/>
<path d="M109.162 20.1933V21.4671H105.415V28.8774H103.861V20.1933H109.162Z" fill="#18212E"/>
<path d="M117.786 24.4633C117.786 27.6757 115.57 29.0777 113.482 29.0777C111.146 29.0777 109.337 27.3553 109.337 24.6075C109.337 21.6994 111.226 19.9931 113.625 19.9931C116.112 19.9931 117.786 21.8036 117.786 24.4633ZM110.931 24.5514C110.931 26.45 112.023 27.892 113.554 27.892C115.052 27.892 116.176 26.474 116.176 24.5193C116.176 23.0453 115.443 21.1787 113.585 21.1787C111.736 21.1787 110.931 22.9011 110.931 24.5514Z" fill="#18212E"/>
<path d="M125.893 20.1933V27.6917L126.785 27.7078L126.698 31.6412H125.462L125.39 28.8774H119.412L119.34 31.6412H118.105L118.033 27.7078L118.767 27.6917C119.141 27.139 119.428 26.5461 119.627 25.9133C119.97 24.8398 120.13 23.6702 120.13 22.4525V20.1933H125.893ZM121.517 22.829C121.517 23.9746 121.357 25.0881 121.07 26.0575C120.895 26.6503 120.64 27.187 120.377 27.6757H124.362V21.395H121.525V22.829H121.517Z" fill="#18212E"/>
<path d="M134.302 28.5569C133.887 28.7732 132.979 29.0777 131.823 29.0777C129.216 29.0777 127.519 27.2832 127.519 24.6315C127.519 21.9558 129.336 20.0171 132.158 20.0171C133.082 20.0171 133.903 20.2494 134.334 20.4657L133.975 21.6834C133.6 21.4671 133.011 21.2748 132.158 21.2748C130.173 21.2748 129.105 22.7489 129.105 24.5594C129.105 26.5702 130.388 27.8039 132.102 27.8039C132.995 27.8039 133.584 27.5716 134.031 27.3713L134.302 28.5569Z" fill="#18212E"/>
<path d="M137.243 20.1933V23.9586H137.618L140.87 20.1933H142.783L139.013 24.1268C140.408 24.271 141.244 25.2003 141.922 26.7624C142.153 27.3392 142.456 28.1804 142.855 28.8774H141.213C140.981 28.5009 140.679 27.8199 140.408 27.0989C139.818 25.697 139.013 25.0561 137.554 25.0561H137.251V28.8774H135.697V20.1933H137.243Z" fill="#18212E"/>
<path d="M145.246 20.1933V23.8544C145.246 25.2403 145.23 26.0975 145.158 27.3392H145.214C145.732 26.2978 146.035 25.689 146.609 24.6876L149.303 20.2013H151.144V28.8854H149.646V25.2083C149.646 23.7903 149.678 23.0533 149.749 21.6514H149.694C149.144 22.7649 148.761 23.4619 148.267 24.3431C147.446 25.689 146.497 27.3553 145.573 28.8854H143.771V20.1933H145.246Z" fill="#18212E"/>
<path d="M153.974 20.1933L155.209 22.0599C155.528 22.5406 155.799 22.9972 156.086 23.4779H156.142C156.429 22.9572 156.716 22.5085 157.003 22.0439L158.215 20.1933H159.912L156.963 24.3912L160 28.8774H158.207L156.939 26.9227C156.596 26.418 156.317 25.9373 156.015 25.4166H155.983C155.696 25.9533 155.393 26.4019 155.074 26.9227L153.823 28.8774H152.093L155.162 24.4472L152.236 20.1933H153.974Z" fill="#18212E"/>
<path d="M69.7793 36.1621V39.663H73.8843V36.1621H75.4386V44.8462H73.8843V40.9127H69.7793V44.8462H68.2249V36.1621H69.7793Z" fill="#18212E"/>
<path d="M78.4356 40.7846C78.4675 42.9235 79.8305 43.7967 81.4008 43.7967C82.5247 43.7967 83.2022 43.5965 83.7921 43.3481L84.0631 44.4777C83.5131 44.726 82.5646 45.0304 81.1856 45.0304C78.5233 45.0304 76.9371 43.252 76.9371 40.6323C76.9371 38.0127 78.4755 35.9458 80.9863 35.9458C83.808 35.9458 84.5573 38.4373 84.5573 40.0395C84.5573 40.36 84.5254 40.6163 84.5015 40.7765H78.4356V40.7846ZM83.0428 39.655C83.0587 38.6536 82.6283 37.0914 80.8668 37.0914C79.2805 37.0914 78.5791 38.5655 78.4595 39.655H83.0428Z" fill="#18212E"/>
<path d="M92.8071 36.1621V43.6605L93.6999 43.6766L93.6122 47.61H92.3767L92.305 44.8462H86.3268L86.2551 47.61H85.0196L84.9478 43.6766L85.6812 43.6605C86.0558 43.1078 86.3428 42.515 86.542 41.8821C86.8848 40.8086 87.0442 39.639 87.0442 38.4213V36.1621H92.8071ZM88.4311 38.7978C88.4311 39.9434 88.2717 41.0569 87.9848 42.0263C87.8094 42.6191 87.5543 43.1558 87.2913 43.6445H91.2767V37.3638H88.4391V38.7978H88.4311Z" fill="#18212E"/>
<path d="M95.1267 38.9901C95.1267 37.8765 95.0948 36.9793 95.0549 36.1541H96.4658L96.5375 37.6442H96.5694C97.215 36.5867 98.2273 35.9539 99.6382 35.9539C101.727 35.9539 103.297 37.7323 103.297 40.368C103.297 43.4923 101.408 45.0304 99.3672 45.0304C98.2273 45.0304 97.223 44.5257 96.7049 43.6685H96.673V48.3871H95.1187V38.9901H95.1267ZM96.681 41.3053C96.681 41.5376 96.7129 41.7539 96.7527 41.9542C97.0397 43.0517 97.9882 43.8047 99.1121 43.8047C100.77 43.8047 101.735 42.4429 101.735 40.4481C101.735 38.7097 100.826 37.2196 99.1599 37.2196C98.0918 37.2196 97.0875 37.9887 96.7846 39.1743C96.7288 39.3746 96.681 39.6069 96.681 39.8232V41.3053Z" fill="#18212E"/>
</svg>
