<svg width="95" height="18" viewBox="0 0 95 18" fill="none" xmlns="http://www.w3.org/2000/svg">
<path d="M3.75 7.44232C3.75 11.0812 6.93336 14.0904 8.34239 15.2441L8.34295 15.2446C8.54499 15.41 8.64605 15.4927 8.79664 15.5351C8.91379 15.5681 9.0861 15.5681 9.20325 15.5351C9.35398 15.4927 9.4553 15.4098 9.65772 15.2441C11.0668 14.0904 14.25 11.0812 14.25 7.4423C14.25 6.06521 13.6969 4.74454 12.7123 3.77079C11.7277 2.79705 10.3924 2.25 9.00003 2.25C7.60764 2.25 6.27226 2.79704 5.28769 3.77078C4.30312 4.74453 3.75 6.06524 3.75 7.44232Z" stroke="#C19570" stroke-width="1.5" stroke-linecap="round" stroke-linejoin="round"/>
<path d="M9 5.25C10.2426 5.25 11.25 6.25736 11.25 7.5C11.25 8.74264 10.2426 9.75 9 9.75C7.75736 9.75 6.75 8.74264 6.75 7.5C6.75 6.25736 7.75736 5.25 9 5.25Z" stroke="#C19570" stroke-width="1.5"/>
<path d="M33.628 7.812H30.422V14H29.12V6.72H33.628V7.812ZM35.4041 13.244C35.4041 13.496 35.3201 13.7153 35.1521 13.902C34.9841 14.0887 34.7555 14.182 34.4661 14.182C34.1768 14.182 33.9481 14.0887 33.7801 13.902C33.6121 13.7153 33.5281 13.496 33.5281 13.244C33.5281 12.992 33.6121 12.7727 33.7801 12.586C33.9481 12.3993 34.1768 12.306 34.4661 12.306C34.7555 12.306 34.9841 12.3993 35.1521 12.586C35.3201 12.7727 35.4041 12.992 35.4041 13.244ZM43.2517 14.084C43.0557 14.084 42.841 14.0793 42.6077 14.07C42.3837 14.0607 42.155 14.0467 41.9217 14.028C41.6977 14.0093 41.4737 13.986 41.2497 13.958C41.0257 13.93 40.8204 13.8927 40.6337 13.846V4.438C40.8204 4.39133 41.0257 4.354 41.2497 4.326C41.4737 4.298 41.6977 4.27467 41.9217 4.256C42.155 4.23733 42.3837 4.22333 42.6077 4.214C42.8317 4.20467 43.0417 4.2 43.2377 4.2C43.7977 4.2 44.3204 4.242 44.8057 4.326C45.3004 4.41 45.725 4.55467 46.0797 4.76C46.4437 4.956 46.7284 5.21733 46.9337 5.544C47.139 5.87067 47.2417 6.272 47.2417 6.748C47.2417 7.28 47.1157 7.71867 46.8637 8.064C46.6117 8.4 46.2757 8.652 45.8557 8.82C46.425 8.988 46.8777 9.254 47.2137 9.618C47.5497 9.982 47.7177 10.4953 47.7177 11.158C47.7177 12.1287 47.3584 12.8613 46.6397 13.356C45.9304 13.8413 44.801 14.084 43.2517 14.084ZM41.9777 9.478V12.894C42.0804 12.9033 42.2017 12.9127 42.3417 12.922C42.463 12.9313 42.603 12.9407 42.7617 12.95C42.9297 12.95 43.121 12.95 43.3357 12.95C43.737 12.95 44.115 12.9267 44.4697 12.88C44.8337 12.824 45.151 12.7307 45.4217 12.6C45.6924 12.4693 45.907 12.2873 46.0657 12.054C46.2337 11.8207 46.3177 11.5267 46.3177 11.172C46.3177 10.8547 46.257 10.5887 46.1357 10.374C46.0144 10.15 45.837 9.97267 45.6037 9.842C45.3797 9.71133 45.109 9.618 44.7917 9.562C44.4744 9.506 44.1197 9.478 43.7277 9.478H41.9777ZM41.9777 8.386H43.4057C43.7417 8.386 44.059 8.36267 44.3577 8.316C44.6564 8.26933 44.913 8.18533 45.1277 8.064C45.3517 7.94267 45.5244 7.784 45.6457 7.588C45.7764 7.392 45.8417 7.14467 45.8417 6.846C45.8417 6.566 45.7764 6.33267 45.6457 6.146C45.515 5.95 45.333 5.796 45.0997 5.684C44.8757 5.56267 44.6097 5.474 44.3017 5.418C43.9937 5.362 43.667 5.334 43.3217 5.334C42.9764 5.334 42.7057 5.33867 42.5097 5.348C42.3137 5.35733 42.1364 5.37133 41.9777 5.39V8.386ZM55.9718 10.36C55.9718 10.9387 55.8878 11.4613 55.7198 11.928C55.5518 12.3947 55.3138 12.796 55.0058 13.132C54.7071 13.468 54.3478 13.7293 53.9278 13.916C53.5078 14.0933 53.0504 14.182 52.5558 14.182C52.0611 14.182 51.6038 14.0933 51.1838 13.916C50.7638 13.7293 50.3998 13.468 50.0918 13.132C49.7931 12.796 49.5598 12.3947 49.3918 11.928C49.2238 11.4613 49.1398 10.9387 49.1398 10.36C49.1398 9.79067 49.2238 9.27267 49.3918 8.806C49.5598 8.33 49.7931 7.924 50.0918 7.588C50.3998 7.252 50.7638 6.99533 51.1838 6.818C51.6038 6.63133 52.0611 6.538 52.5558 6.538C53.0504 6.538 53.5078 6.63133 53.9278 6.818C54.3478 6.99533 54.7071 7.252 55.0058 7.588C55.3138 7.924 55.5518 8.33 55.7198 8.806C55.8878 9.27267 55.9718 9.79067 55.9718 10.36ZM54.6138 10.36C54.6138 9.53867 54.4271 8.89 54.0538 8.414C53.6898 7.92867 53.1904 7.686 52.5558 7.686C51.9211 7.686 51.4171 7.92867 51.0438 8.414C50.6798 8.89 50.4978 9.53867 50.4978 10.36C50.4978 11.1813 50.6798 11.8347 51.0438 12.32C51.4171 12.796 51.9211 13.034 52.5558 13.034C53.1904 13.034 53.6898 12.796 54.0538 12.32C54.4271 11.8347 54.6138 11.1813 54.6138 10.36ZM60.3376 7.812C60.3376 8.12 60.3283 8.45133 60.3096 8.806C60.3003 9.15133 60.2769 9.50133 60.2396 9.856C60.2023 10.2013 60.1509 10.5467 60.0856 10.892C60.0203 11.228 59.9363 11.5453 59.8336 11.844C59.7309 12.1427 59.6003 12.4227 59.4416 12.684C59.2923 12.9453 59.1056 13.1787 58.8816 13.384C58.6576 13.58 58.3963 13.748 58.0976 13.888C57.7989 14.0187 57.4489 14.1027 57.0476 14.14L56.8656 13.048C57.3229 12.9547 57.6823 12.782 57.9436 12.53C58.2143 12.278 58.4289 11.97 58.5876 11.606C58.7276 11.2887 58.8303 10.9293 58.8956 10.528C58.9609 10.1267 59.0076 9.71133 59.0356 9.282C59.0636 8.84333 59.0776 8.40467 59.0776 7.966C59.0869 7.52733 59.0916 7.112 59.0916 6.72H63.9356V14H62.6336V7.812H60.3376ZM72.5968 10.36C72.5968 10.9387 72.5128 11.4613 72.3448 11.928C72.1768 12.3947 71.9388 12.796 71.6308 13.132C71.3321 13.468 70.9728 13.7293 70.5528 13.916C70.1328 14.0933 69.6754 14.182 69.1808 14.182C68.6861 14.182 68.2288 14.0933 67.8088 13.916C67.3888 13.7293 67.0248 13.468 66.7168 13.132C66.4181 12.796 66.1848 12.3947 66.0168 11.928C65.8488 11.4613 65.7648 10.9387 65.7648 10.36C65.7648 9.79067 65.8488 9.27267 66.0168 8.806C66.1848 8.33 66.4181 7.924 66.7168 7.588C67.0248 7.252 67.3888 6.99533 67.8088 6.818C68.2288 6.63133 68.6861 6.538 69.1808 6.538C69.6754 6.538 70.1328 6.63133 70.5528 6.818C70.9728 6.99533 71.3321 7.252 71.6308 7.588C71.9388 7.924 72.1768 8.33 72.3448 8.806C72.5128 9.27267 72.5968 9.79067 72.5968 10.36ZM71.2388 10.36C71.2388 9.53867 71.0521 8.89 70.6788 8.414C70.3148 7.92867 69.8154 7.686 69.1808 7.686C68.5461 7.686 68.0421 7.92867 67.6688 8.414C67.3048 8.89 67.1228 9.53867 67.1228 10.36C67.1228 11.1813 67.3048 11.8347 67.6688 12.32C68.0421 12.796 68.5461 13.034 69.1808 13.034C69.8154 13.034 70.3148 12.796 70.6788 12.32C71.0521 11.8347 71.2388 11.1813 71.2388 10.36ZM78.9366 7.812H75.7306V14H74.4286V6.72H78.9366V7.812ZM78.7689 12.936H79.5529C79.8609 12.488 80.1036 12.026 80.2809 11.55C80.4676 11.074 80.6076 10.584 80.7009 10.08C80.7943 9.56667 80.8549 9.03467 80.8829 8.484C80.9109 7.924 80.9296 7.336 80.9389 6.72H85.7129V12.936H86.6929V16.03H85.4609V14H80.0009V16.03H78.7689V12.936ZM84.4109 12.936V7.812H82.1289C82.1196 8.25067 82.0963 8.694 82.0589 9.142C82.0216 9.58067 81.9609 10.0193 81.8769 10.458C81.7929 10.8873 81.6716 11.312 81.5129 11.732C81.3636 12.1427 81.1723 12.544 80.9389 12.936H84.4109ZM90.5645 13.062C90.8725 13.062 91.1431 13.0573 91.3765 13.048C91.6191 13.0293 91.8198 13.0013 91.9785 12.964V10.794C91.8851 10.7473 91.7311 10.71 91.5165 10.682C91.3111 10.6447 91.0591 10.626 90.7605 10.626C90.5645 10.626 90.3545 10.64 90.1305 10.668C89.9158 10.696 89.7151 10.7567 89.5285 10.85C89.3511 10.934 89.2018 11.0553 89.0805 11.214C88.9591 11.3633 88.8985 11.564 88.8985 11.816C88.8985 12.2827 89.0478 12.6093 89.3465 12.796C89.6451 12.9733 90.0511 13.062 90.5645 13.062ZM90.4525 6.538C90.9751 6.538 91.4138 6.608 91.7685 6.748C92.1325 6.87867 92.4218 7.07 92.6365 7.322C92.8605 7.56467 93.0191 7.85867 93.1125 8.204C93.2058 8.54 93.2525 8.91333 93.2525 9.324V13.874C93.1405 13.8927 92.9818 13.9207 92.7765 13.958C92.5805 13.986 92.3565 14.014 92.1045 14.042C91.8525 14.07 91.5771 14.0933 91.2785 14.112C90.9891 14.14 90.6998 14.154 90.4105 14.154C89.9998 14.154 89.6218 14.112 89.2765 14.028C88.9311 13.944 88.6325 13.8133 88.3805 13.636C88.1285 13.4493 87.9325 13.2067 87.7925 12.908C87.6525 12.6093 87.5825 12.25 87.5825 11.83C87.5825 11.4287 87.6618 11.0833 87.8205 10.794C87.9885 10.5047 88.2125 10.2713 88.4925 10.094C88.7725 9.91667 89.0991 9.786 89.4725 9.702C89.8458 9.618 90.2378 9.576 90.6485 9.576C90.7791 9.576 90.9145 9.58533 91.0545 9.604C91.1945 9.61333 91.3251 9.632 91.4465 9.66C91.5771 9.67867 91.6891 9.69733 91.7825 9.716C91.8758 9.73467 91.9411 9.74867 91.9785 9.758V9.394C91.9785 9.17933 91.9551 8.96933 91.9085 8.764C91.8618 8.54933 91.7778 8.36267 91.6565 8.204C91.5351 8.036 91.3671 7.90533 91.1525 7.812C90.9471 7.70933 90.6765 7.658 90.3405 7.658C89.9111 7.658 89.5331 7.69067 89.2065 7.756C88.8891 7.812 88.6511 7.87267 88.4925 7.938L88.3385 6.86C88.5065 6.78533 88.7865 6.71533 89.1785 6.65C89.5705 6.57533 89.9951 6.538 90.4525 6.538Z" fill="#464D58"/>
</svg>
